G75*
%MOIN*%
%OFA0B0*%
%FSLAX24Y24*%
%IPPOS*%
%LPD*%
%AMOC8*
5,1,8,0,0,1.08239X$1,22.5*
%
%ADD10R,0.0303X0.0165*%
%ADD11R,0.0394X0.0394*%
%ADD12C,0.0436*%
%ADD13C,0.0630*%
%ADD14C,0.0079*%
%ADD15C,0.0302*%
%ADD16C,0.0157*%
D10*
X001478Y001418D03*
X001478Y001930D03*
X002226Y001930D03*
X002226Y001674D03*
X002226Y001418D03*
D11*
X002206Y000867D03*
X001537Y000867D03*
X001517Y002461D03*
X002187Y002461D03*
X002187Y003131D03*
X001576Y003741D03*
X001517Y003131D03*
X002344Y004076D03*
X003013Y004076D03*
X003604Y004076D03*
X004116Y003505D03*
X004273Y004076D03*
X004785Y003505D03*
X004785Y002835D03*
X004588Y002265D03*
X004588Y001674D03*
X004588Y001083D03*
X003919Y001083D03*
X003348Y001654D03*
X003919Y001674D03*
X003919Y002265D03*
X003348Y002324D03*
X004116Y002835D03*
X001576Y004410D03*
D12*
X002698Y003091D03*
X003446Y003091D03*
D13*
X003624Y004942D03*
X002521Y004942D03*
X004726Y004942D03*
D14*
X004254Y004548D02*
X004254Y004095D01*
X004273Y004076D01*
X004273Y004174D01*
X003624Y004095D02*
X003604Y004076D01*
X003013Y004076D01*
X003072Y004135D01*
X003624Y004095D02*
X003624Y004942D01*
X002344Y004076D02*
X002285Y004076D01*
X001950Y004410D01*
X001576Y004410D01*
X001576Y003741D02*
X001576Y003190D01*
X001517Y003131D01*
X001517Y002461D01*
X001517Y001969D01*
X001478Y001930D01*
X001891Y001595D02*
X001970Y001674D01*
X002226Y001674D01*
X002738Y001674D01*
X002541Y001930D02*
X002600Y001989D01*
X002994Y001989D01*
X003328Y001654D01*
X003348Y001654D01*
X003801Y001202D02*
X002718Y001202D01*
X002502Y001418D01*
X002226Y001418D01*
X002206Y001654D02*
X002226Y001674D01*
X002226Y001930D02*
X002187Y001969D01*
X002187Y002461D01*
X002187Y003131D01*
X002226Y001930D02*
X002541Y001930D01*
X001891Y001595D02*
X001891Y001162D01*
X002187Y000867D01*
X002206Y000867D01*
X003348Y002324D02*
X003348Y002343D01*
X003742Y002737D01*
X004017Y002737D01*
X004116Y002835D01*
X003702Y003091D02*
X004116Y003505D01*
X004785Y003505D01*
X004785Y002835D02*
X004805Y002835D01*
X004805Y002816D01*
X005120Y002501D01*
X005218Y002501D01*
X005435Y002284D01*
X005435Y001831D01*
X005277Y001674D01*
X004588Y001674D01*
X004254Y001418D02*
X004588Y001083D01*
X004254Y001418D02*
X004254Y001950D01*
X004569Y002265D01*
X004588Y002265D01*
X004962Y002265D01*
X005080Y002146D01*
X005080Y001950D01*
X003919Y001674D02*
X003919Y001083D01*
X003801Y001202D01*
X003919Y001674D02*
X003919Y002265D01*
X003702Y003091D02*
X003446Y003091D01*
D15*
X000907Y001418D03*
X002738Y001674D03*
X005080Y001950D03*
X005435Y002284D03*
X004726Y004233D03*
X004254Y004548D03*
X001793Y004942D03*
D16*
X002521Y004942D01*
X004726Y004942D02*
X004726Y004233D01*
X004726Y004942D02*
X004726Y004981D01*
X001478Y001418D02*
X001478Y000926D01*
X001537Y000867D01*
X001478Y001418D02*
X000907Y001418D01*
M02*
