G75*
%MOIN*%
%OFA0B0*%
%FSLAX24Y24*%
%IPPOS*%
%LPD*%
%AMOC8*
5,1,8,0,0,1.08239X$1,22.5*
%
%ADD10C,0.0436*%
%ADD11C,0.0079*%
%ADD12C,0.0302*%
%ADD13C,0.0157*%
D10*
X002698Y003091D03*
X003446Y003091D03*
D11*
X003728Y002842D02*
X004490Y002842D01*
X004490Y002797D02*
X005171Y002116D01*
X005173Y002110D01*
X005198Y002084D01*
X005198Y001595D01*
X005061Y001457D01*
X001215Y001457D01*
X001215Y001479D01*
X001168Y001593D01*
X001082Y001680D01*
X000968Y001726D01*
X000846Y001726D01*
X000732Y001680D01*
X000646Y001593D01*
X000612Y001511D01*
X000612Y002616D01*
X000706Y002616D01*
X000881Y002688D01*
X001015Y002822D01*
X001087Y002997D01*
X001087Y003186D01*
X001015Y003361D01*
X000881Y003495D01*
X000706Y003567D01*
X000612Y003567D01*
X000612Y004980D01*
X000616Y004978D01*
X000805Y004978D01*
X000980Y005050D01*
X001113Y005184D01*
X001186Y005359D01*
X001186Y005548D01*
X001184Y005552D01*
X002597Y005552D01*
X002597Y005457D01*
X002669Y005283D01*
X002803Y005149D01*
X002978Y005076D01*
X003167Y005076D01*
X003342Y005149D01*
X003476Y005283D01*
X003548Y005457D01*
X003548Y005552D01*
X004961Y005552D01*
X004959Y005548D01*
X004959Y005359D01*
X005031Y005184D01*
X005165Y005050D01*
X005340Y004978D01*
X005529Y004978D01*
X005533Y004980D01*
X005533Y003469D01*
X005438Y003469D01*
X005264Y003396D01*
X005130Y003262D01*
X005057Y003088D01*
X005057Y002898D01*
X005058Y002896D01*
X004962Y002992D01*
X004962Y004033D01*
X004987Y004058D01*
X005034Y004172D01*
X005034Y004294D01*
X004987Y004408D01*
X004901Y004494D01*
X004787Y004541D01*
X004665Y004541D01*
X004551Y004494D01*
X004465Y004408D01*
X004418Y004294D01*
X004418Y004172D01*
X004465Y004058D01*
X004490Y004033D01*
X004490Y002797D01*
X004522Y002765D02*
X003639Y002765D01*
X003659Y002773D02*
X003765Y002879D01*
X003822Y003017D01*
X003822Y003166D01*
X003765Y003304D01*
X003659Y003410D01*
X003521Y003467D01*
X003372Y003467D01*
X003234Y003410D01*
X003128Y003304D01*
X003071Y003166D01*
X003071Y003017D01*
X003128Y002879D01*
X003234Y002773D01*
X003372Y002716D01*
X003521Y002716D01*
X003659Y002773D01*
X003782Y002919D02*
X004490Y002919D01*
X004490Y002996D02*
X003814Y002996D01*
X003822Y003074D02*
X004490Y003074D01*
X004490Y003151D02*
X003822Y003151D01*
X003796Y003228D02*
X004490Y003228D01*
X004490Y003305D02*
X003764Y003305D01*
X003686Y003383D02*
X004490Y003383D01*
X004490Y003460D02*
X003538Y003460D01*
X003355Y003460D02*
X000916Y003460D01*
X000993Y003383D02*
X003207Y003383D01*
X003129Y003305D02*
X001038Y003305D01*
X001070Y003228D02*
X003097Y003228D01*
X003071Y003151D02*
X001087Y003151D01*
X001087Y003074D02*
X003071Y003074D01*
X003079Y002996D02*
X001087Y002996D01*
X001055Y002919D02*
X003111Y002919D01*
X003165Y002842D02*
X001023Y002842D01*
X000958Y002765D02*
X003253Y002765D01*
X002817Y001674D02*
X002738Y001674D01*
X001195Y001529D02*
X005133Y001529D01*
X005198Y001606D02*
X001155Y001606D01*
X001072Y001683D02*
X005198Y001683D01*
X005198Y001761D02*
X000612Y001761D01*
X000612Y001838D02*
X005198Y001838D01*
X005198Y001915D02*
X000612Y001915D01*
X000612Y001992D02*
X005198Y001992D01*
X005198Y002070D02*
X000612Y002070D01*
X000612Y002147D02*
X005140Y002147D01*
X005062Y002224D02*
X000612Y002224D01*
X000612Y002301D02*
X004985Y002301D01*
X004908Y002379D02*
X000612Y002379D01*
X000612Y002456D02*
X004831Y002456D01*
X004753Y002533D02*
X000612Y002533D01*
X000612Y002610D02*
X004676Y002610D01*
X004599Y002688D02*
X000880Y002688D01*
X000778Y003537D02*
X004490Y003537D01*
X004490Y003614D02*
X000612Y003614D01*
X000612Y003692D02*
X004490Y003692D01*
X004490Y003769D02*
X000612Y003769D01*
X000612Y003846D02*
X004490Y003846D01*
X004490Y003923D02*
X000612Y003923D01*
X000612Y004001D02*
X004490Y004001D01*
X004457Y004078D02*
X000612Y004078D01*
X000612Y004155D02*
X004425Y004155D01*
X004418Y004232D02*
X000612Y004232D01*
X000612Y004310D02*
X004424Y004310D01*
X004456Y004387D02*
X000612Y004387D01*
X000612Y004464D02*
X004521Y004464D01*
X004664Y004541D02*
X000612Y004541D01*
X000612Y004619D02*
X005533Y004619D01*
X005533Y004541D02*
X004788Y004541D01*
X004931Y004464D02*
X005533Y004464D01*
X005533Y004387D02*
X004996Y004387D01*
X005028Y004310D02*
X005533Y004310D01*
X005533Y004232D02*
X005034Y004232D01*
X005027Y004155D02*
X005533Y004155D01*
X005533Y004078D02*
X004995Y004078D01*
X004962Y004001D02*
X005533Y004001D01*
X005533Y003923D02*
X004962Y003923D01*
X004962Y003846D02*
X005533Y003846D01*
X005533Y003769D02*
X004962Y003769D01*
X004962Y003692D02*
X005533Y003692D01*
X005533Y003614D02*
X004962Y003614D01*
X004962Y003537D02*
X005533Y003537D01*
X005418Y003460D02*
X004962Y003460D01*
X004962Y003383D02*
X005250Y003383D01*
X005173Y003305D02*
X004962Y003305D01*
X004962Y003228D02*
X005116Y003228D01*
X005084Y003151D02*
X004962Y003151D01*
X004962Y003074D02*
X005057Y003074D01*
X005057Y002996D02*
X004962Y002996D01*
X005035Y002919D02*
X005057Y002919D01*
X005533Y004696D02*
X000612Y004696D01*
X000612Y004773D02*
X005533Y004773D01*
X005533Y004850D02*
X000612Y004850D01*
X000612Y004927D02*
X005533Y004927D01*
X005275Y005005D02*
X000869Y005005D01*
X001011Y005082D02*
X002964Y005082D01*
X002793Y005159D02*
X001088Y005159D01*
X001135Y005236D02*
X002715Y005236D01*
X002656Y005314D02*
X001167Y005314D01*
X001186Y005391D02*
X002624Y005391D01*
X002597Y005468D02*
X001186Y005468D01*
X001186Y005545D02*
X002597Y005545D01*
X003181Y005082D02*
X005134Y005082D01*
X005056Y005159D02*
X003352Y005159D01*
X003430Y005236D02*
X005010Y005236D01*
X004978Y005314D02*
X003489Y005314D01*
X003521Y005391D02*
X004959Y005391D01*
X004959Y005468D02*
X003548Y005468D01*
X003548Y005545D02*
X004959Y005545D01*
X000742Y001683D02*
X000612Y001683D01*
X000612Y001606D02*
X000659Y001606D01*
X000619Y001529D02*
X000612Y001529D01*
D12*
X000907Y001418D03*
X002738Y001674D03*
X005080Y001950D03*
X005435Y002284D03*
X004726Y004233D03*
X004254Y004548D03*
X001793Y004942D03*
D13*
X001104Y001221D02*
X005159Y001221D01*
X005435Y001497D01*
X005435Y002284D01*
X005336Y002284D01*
X004726Y002894D01*
X004726Y004233D01*
X001104Y001221D02*
X000907Y001418D01*
M02*
