G75*
%MOIN*%
%OFA0B0*%
%FSLAX24Y24*%
%IPPOS*%
%LPD*%
%AMOC8*
5,1,8,0,0,1.08239X$1,22.5*
%
%ADD10C,0.0070*%
%ADD11C,0.0079*%
%ADD12C,0.0050*%
%ADD13C,0.0030*%
%ADD14C,0.0020*%
D10*
X004502Y005370D02*
X004636Y005505D01*
X004636Y005773D01*
X004802Y005572D02*
X005071Y005572D01*
X004937Y005706D02*
X004937Y005438D01*
X004502Y005370D02*
X004367Y005505D01*
X004367Y005773D01*
D11*
X003505Y004509D02*
X003503Y004489D01*
X003498Y004469D01*
X003489Y004450D01*
X003477Y004433D01*
X003463Y004419D01*
X003446Y004407D01*
X003427Y004398D01*
X003407Y004393D01*
X003387Y004391D01*
X003367Y004393D01*
X003347Y004398D01*
X003328Y004407D01*
X003311Y004419D01*
X003297Y004433D01*
X003285Y004450D01*
X003276Y004469D01*
X003271Y004489D01*
X003269Y004509D01*
X003267Y004529D01*
X003262Y004549D01*
X003253Y004568D01*
X003241Y004585D01*
X003227Y004599D01*
X003210Y004611D01*
X003191Y004620D01*
X003171Y004625D01*
X003151Y004627D01*
X003131Y004625D01*
X003111Y004620D01*
X003092Y004611D01*
X003075Y004599D01*
X003061Y004585D01*
X003049Y004568D01*
X003040Y004549D01*
X003035Y004529D01*
X003033Y004509D01*
X002183Y005391D02*
X001993Y005391D01*
X001916Y005468D02*
X002260Y005468D01*
X002324Y005532D02*
X002088Y005296D01*
X001852Y005532D01*
X002324Y005532D01*
X002106Y005314D02*
X002071Y005314D01*
X002088Y005572D02*
X002088Y005769D01*
D12*
X002580Y001556D02*
X002580Y001280D01*
X002443Y001418D01*
X002580Y001556D01*
X002580Y001545D02*
X002569Y001545D01*
X002580Y001497D02*
X002521Y001497D01*
X002472Y001448D02*
X002580Y001448D01*
X002580Y001400D02*
X002461Y001400D01*
X002510Y001351D02*
X002580Y001351D01*
X002580Y001303D02*
X002558Y001303D01*
D13*
X002580Y002043D02*
X002498Y002043D01*
X002458Y002084D01*
X002458Y002289D01*
X002621Y002289D02*
X002621Y002084D01*
X002580Y002043D01*
X002711Y002043D02*
X002875Y002043D01*
X002793Y002043D02*
X002793Y002289D01*
X002711Y002207D01*
D14*
X001382Y000353D02*
X001424Y000310D01*
X001510Y000310D01*
X001552Y000353D01*
X001635Y000353D02*
X001678Y000310D01*
X001763Y000310D01*
X001806Y000353D01*
X001806Y000395D01*
X001763Y000438D01*
X001721Y000438D01*
X001763Y000438D02*
X001806Y000481D01*
X001806Y000523D01*
X001763Y000566D01*
X001678Y000566D01*
X001635Y000523D01*
X001552Y000523D02*
X001510Y000566D01*
X001424Y000566D01*
X001382Y000523D01*
X001382Y000353D01*
X001197Y002353D02*
X001111Y002353D01*
X001069Y002396D01*
X000986Y002353D02*
X000900Y002439D01*
X000943Y002439D02*
X000815Y002439D01*
X000815Y002353D02*
X000815Y002609D01*
X000943Y002609D01*
X000986Y002566D01*
X000986Y002481D01*
X000943Y002439D01*
X001069Y002481D02*
X001154Y002524D01*
X001197Y002524D01*
X001239Y002481D01*
X001239Y002396D01*
X001197Y002353D01*
X001069Y002481D02*
X001069Y002609D01*
X001239Y002609D01*
X002015Y003393D02*
X002100Y003393D01*
X002143Y003435D01*
X002226Y003435D02*
X002269Y003393D01*
X002354Y003393D01*
X002397Y003435D01*
X002397Y003521D01*
X002354Y003563D01*
X002312Y003563D01*
X002226Y003521D01*
X002226Y003648D01*
X002397Y003648D01*
X002143Y003606D02*
X002100Y003648D01*
X002015Y003648D01*
X001973Y003606D01*
X001973Y003435D01*
X002015Y003393D01*
X002834Y002845D02*
X002834Y002590D01*
X002834Y002675D02*
X002962Y002675D01*
X003005Y002717D01*
X003005Y002803D01*
X002962Y002845D01*
X002834Y002845D01*
X002920Y002675D02*
X003005Y002590D01*
X003088Y002717D02*
X003259Y002717D01*
X003216Y002590D02*
X003216Y002845D01*
X003088Y002717D01*
X003491Y003460D02*
X003576Y003460D01*
X003619Y003502D01*
X003702Y003460D02*
X003873Y003460D01*
X003788Y003460D02*
X003788Y003715D01*
X003702Y003630D01*
X003619Y003673D02*
X003576Y003715D01*
X003491Y003715D01*
X003449Y003673D01*
X003449Y003502D01*
X003491Y003460D01*
X004083Y004361D02*
X004083Y004617D01*
X004211Y004617D01*
X004253Y004574D01*
X004253Y004489D01*
X004211Y004446D01*
X004083Y004446D01*
X004168Y004446D02*
X004253Y004361D01*
X004337Y004361D02*
X004337Y004404D01*
X004507Y004574D01*
X004507Y004617D01*
X004337Y004617D01*
X005118Y003731D02*
X005246Y003731D01*
X005288Y003689D01*
X005288Y003603D01*
X005246Y003561D01*
X005118Y003561D01*
X005203Y003561D02*
X005288Y003475D01*
X005372Y003475D02*
X005542Y003475D01*
X005457Y003475D02*
X005457Y003731D01*
X005372Y003646D01*
X005118Y003731D02*
X005118Y003475D01*
X005167Y002412D02*
X005252Y002412D01*
X005294Y002370D01*
X005294Y002327D01*
X005252Y002284D01*
X005294Y002242D01*
X005294Y002199D01*
X005252Y002156D01*
X005167Y002156D01*
X005124Y002199D01*
X005041Y002156D02*
X004955Y002242D01*
X004998Y002242D02*
X004870Y002242D01*
X004870Y002156D02*
X004870Y002412D01*
X004998Y002412D01*
X005041Y002370D01*
X005041Y002284D01*
X004998Y002242D01*
X005124Y002370D02*
X005167Y002412D01*
X005209Y002284D02*
X005252Y002284D01*
X005263Y001743D02*
X005178Y001743D01*
X005135Y001700D01*
X005052Y001700D02*
X005052Y001615D01*
X005010Y001572D01*
X004882Y001572D01*
X004882Y001487D02*
X004882Y001743D01*
X005010Y001743D01*
X005052Y001700D01*
X004967Y001572D02*
X005052Y001487D01*
X005135Y001487D02*
X005306Y001658D01*
X005306Y001700D01*
X005263Y001743D01*
X005306Y001487D02*
X005135Y001487D01*
X004129Y000732D02*
X004087Y000774D01*
X004001Y000774D01*
X003959Y000732D01*
X003875Y000732D02*
X003833Y000774D01*
X003747Y000774D01*
X003705Y000732D01*
X003705Y000561D01*
X003747Y000519D01*
X003833Y000519D01*
X003875Y000561D01*
X003959Y000519D02*
X004129Y000689D01*
X004129Y000732D01*
X004129Y000519D02*
X003959Y000519D01*
X002531Y004345D02*
X002531Y004601D01*
X002403Y004473D01*
X002574Y004473D01*
X002320Y004388D02*
X002277Y004345D01*
X002192Y004345D01*
X002149Y004388D01*
X002149Y004559D01*
X002192Y004601D01*
X002277Y004601D01*
X002320Y004559D01*
X001318Y004578D02*
X001233Y004535D01*
X001148Y004450D01*
X001275Y004450D01*
X001318Y004407D01*
X001318Y004364D01*
X001275Y004322D01*
X001190Y004322D01*
X001148Y004364D01*
X001148Y004450D01*
X001064Y004450D02*
X001064Y004535D01*
X001022Y004578D01*
X000894Y004578D01*
X000894Y004322D01*
X000894Y004407D02*
X001022Y004407D01*
X001064Y004450D01*
X000979Y004407D02*
X001064Y004322D01*
M02*
