G75*
%MOIN*%
%OFA0B0*%
%FSLAX24Y24*%
%IPPOS*%
%LPD*%
%AMOC8*
5,1,8,0,0,1.08239X$1,22.5*
%
%ADD10C,0.0040*%
%ADD11C,0.0079*%
D10*
X002111Y001261D02*
X002111Y001549D01*
X002256Y001694D01*
X002400Y001549D01*
X002400Y001261D01*
X002400Y001477D02*
X002111Y001477D01*
X002981Y001549D02*
X003126Y001261D01*
X003270Y001549D01*
X003416Y001477D02*
X003416Y001405D01*
X003705Y001405D01*
X003705Y001333D02*
X003705Y001477D01*
X003633Y001549D01*
X003489Y001549D01*
X003416Y001477D01*
X003489Y001261D02*
X003633Y001261D01*
X003705Y001333D01*
X003851Y001261D02*
X003996Y001405D01*
X003924Y001405D02*
X004140Y001405D01*
X004140Y001261D02*
X004140Y001694D01*
X003924Y001694D01*
X003851Y001622D01*
X003851Y001477D01*
X003924Y001405D01*
X003632Y003741D02*
X003632Y004174D01*
X003488Y004030D01*
X003344Y004174D01*
X003344Y003741D01*
X003197Y003741D02*
X003053Y003741D01*
X003125Y003741D02*
X003125Y004030D01*
X003197Y004030D01*
X003125Y004174D02*
X003125Y004246D01*
X003235Y004450D02*
X003163Y004522D01*
X003235Y004594D01*
X003379Y004594D01*
X003451Y004666D01*
X003379Y004738D01*
X003163Y004738D01*
X003016Y004738D02*
X002872Y004738D01*
X002944Y004811D02*
X002944Y004522D01*
X002872Y004450D01*
X002726Y004522D02*
X002726Y004666D01*
X002654Y004738D01*
X002438Y004738D01*
X002291Y004738D02*
X002291Y004450D01*
X002291Y004594D02*
X002147Y004738D01*
X002075Y004738D01*
X001929Y004666D02*
X001857Y004738D01*
X001712Y004738D01*
X001640Y004666D01*
X001640Y004594D01*
X001929Y004594D01*
X001929Y004522D02*
X001929Y004666D01*
X001929Y004522D02*
X001857Y004450D01*
X001712Y004450D01*
X001494Y004450D02*
X001277Y004450D01*
X001205Y004522D01*
X001277Y004594D01*
X001421Y004594D01*
X001494Y004666D01*
X001421Y004738D01*
X001205Y004738D01*
X001059Y004666D02*
X000986Y004738D01*
X000770Y004738D01*
X000842Y004594D02*
X000986Y004594D01*
X001059Y004666D01*
X001059Y004450D02*
X000842Y004450D01*
X000770Y004522D01*
X000842Y004594D01*
X002438Y004450D02*
X002654Y004450D01*
X002726Y004522D01*
X002438Y004450D02*
X002438Y004883D01*
X003235Y004450D02*
X003451Y004450D01*
X003598Y004594D02*
X003886Y004594D01*
X003886Y004522D02*
X003886Y004666D01*
X003814Y004738D01*
X003670Y004738D01*
X003598Y004666D01*
X003598Y004594D01*
X003670Y004450D02*
X003814Y004450D01*
X003886Y004522D01*
X004032Y004666D02*
X004176Y004666D01*
X004104Y004811D02*
X004104Y004450D01*
X004323Y004450D02*
X004539Y004450D01*
X004611Y004522D01*
X004611Y004666D01*
X004539Y004738D01*
X004323Y004738D01*
X004323Y004883D02*
X004323Y004450D01*
X004104Y004811D02*
X004032Y004883D01*
X004758Y004666D02*
X004758Y004594D01*
X005046Y004594D01*
X005046Y004522D02*
X005046Y004666D01*
X004974Y004738D01*
X004830Y004738D01*
X004758Y004666D01*
X004830Y004450D02*
X004974Y004450D01*
X005046Y004522D01*
X005193Y004450D02*
X005193Y004883D01*
X005481Y004883D02*
X005481Y004450D01*
X005337Y004594D01*
X005193Y004450D01*
X002907Y003958D02*
X002907Y003813D01*
X002835Y003741D01*
X002619Y003741D01*
X002619Y004030D02*
X002835Y004030D01*
X002907Y003958D01*
D11*
X003446Y002698D02*
X003446Y002304D01*
X003250Y002501D02*
X003643Y002501D01*
M02*
