G75*
%MOIN*%
%OFA0B0*%
%FSLAX24Y24*%
%IPPOS*%
%LPD*%
%AMOC8*
5,1,8,0,0,1.08239X$1,22.5*
%
%ADD10C,0.0039*%
%ADD11C,0.0000*%
%ADD12C,0.0552*%
%ADD13C,0.0516*%
%ADD14C,0.0382*%
D10*
X000907Y000139D02*
X005238Y000139D01*
X005292Y000141D01*
X005345Y000146D01*
X005398Y000155D01*
X005450Y000168D01*
X005502Y000184D01*
X005552Y000204D01*
X005600Y000227D01*
X005647Y000254D01*
X005692Y000283D01*
X005735Y000316D01*
X005775Y000351D01*
X005813Y000389D01*
X005848Y000429D01*
X005881Y000472D01*
X005910Y000517D01*
X005937Y000564D01*
X005960Y000612D01*
X005980Y000662D01*
X005996Y000714D01*
X006009Y000766D01*
X006018Y000819D01*
X006023Y000872D01*
X006025Y000926D01*
X006025Y005257D01*
X006023Y005311D01*
X006018Y005364D01*
X006009Y005417D01*
X005996Y005469D01*
X005980Y005521D01*
X005960Y005571D01*
X005937Y005619D01*
X005910Y005666D01*
X005881Y005711D01*
X005848Y005754D01*
X005813Y005794D01*
X005775Y005832D01*
X005735Y005867D01*
X005692Y005900D01*
X005647Y005929D01*
X005600Y005956D01*
X005552Y005979D01*
X005502Y005999D01*
X005450Y006015D01*
X005398Y006028D01*
X005345Y006037D01*
X005292Y006042D01*
X005238Y006044D01*
X000907Y006044D01*
X000853Y006042D01*
X000800Y006037D01*
X000747Y006028D01*
X000695Y006015D01*
X000643Y005999D01*
X000593Y005979D01*
X000545Y005956D01*
X000498Y005929D01*
X000453Y005900D01*
X000410Y005867D01*
X000370Y005832D01*
X000332Y005794D01*
X000297Y005754D01*
X000264Y005711D01*
X000235Y005666D01*
X000208Y005619D01*
X000185Y005571D01*
X000165Y005521D01*
X000149Y005469D01*
X000136Y005417D01*
X000127Y005364D01*
X000122Y005311D01*
X000120Y005257D01*
X000120Y000926D01*
X000122Y000872D01*
X000127Y000819D01*
X000136Y000766D01*
X000149Y000714D01*
X000165Y000662D01*
X000185Y000612D01*
X000208Y000564D01*
X000235Y000517D01*
X000264Y000472D01*
X000297Y000429D01*
X000332Y000389D01*
X000370Y000351D01*
X000410Y000316D01*
X000453Y000283D01*
X000498Y000254D01*
X000545Y000227D01*
X000593Y000204D01*
X000643Y000184D01*
X000695Y000168D01*
X000747Y000155D01*
X000800Y000146D01*
X000853Y000141D01*
X000907Y000139D01*
D11*
X000474Y000729D02*
X000476Y000759D01*
X000482Y000789D01*
X000491Y000818D01*
X000504Y000845D01*
X000521Y000870D01*
X000540Y000893D01*
X000563Y000914D01*
X000588Y000931D01*
X000614Y000945D01*
X000643Y000955D01*
X000672Y000962D01*
X000702Y000965D01*
X000733Y000964D01*
X000763Y000959D01*
X000792Y000950D01*
X000819Y000938D01*
X000845Y000923D01*
X000869Y000904D01*
X000890Y000882D01*
X000908Y000858D01*
X000923Y000831D01*
X000934Y000803D01*
X000942Y000774D01*
X000946Y000744D01*
X000946Y000714D01*
X000942Y000684D01*
X000934Y000655D01*
X000923Y000627D01*
X000908Y000600D01*
X000890Y000576D01*
X000869Y000554D01*
X000845Y000535D01*
X000819Y000520D01*
X000792Y000508D01*
X000763Y000499D01*
X000733Y000494D01*
X000702Y000493D01*
X000672Y000496D01*
X000643Y000503D01*
X000614Y000513D01*
X000588Y000527D01*
X000563Y000544D01*
X000540Y000565D01*
X000521Y000588D01*
X000504Y000613D01*
X000491Y000640D01*
X000482Y000669D01*
X000476Y000699D01*
X000474Y000729D01*
X000376Y003091D02*
X000378Y003121D01*
X000384Y003151D01*
X000393Y003180D01*
X000406Y003207D01*
X000423Y003232D01*
X000442Y003255D01*
X000465Y003276D01*
X000490Y003293D01*
X000516Y003307D01*
X000545Y003317D01*
X000574Y003324D01*
X000604Y003327D01*
X000635Y003326D01*
X000665Y003321D01*
X000694Y003312D01*
X000721Y003300D01*
X000747Y003285D01*
X000771Y003266D01*
X000792Y003244D01*
X000810Y003220D01*
X000825Y003193D01*
X000836Y003165D01*
X000844Y003136D01*
X000848Y003106D01*
X000848Y003076D01*
X000844Y003046D01*
X000836Y003017D01*
X000825Y002989D01*
X000810Y002962D01*
X000792Y002938D01*
X000771Y002916D01*
X000747Y002897D01*
X000721Y002882D01*
X000694Y002870D01*
X000665Y002861D01*
X000635Y002856D01*
X000604Y002855D01*
X000574Y002858D01*
X000545Y002865D01*
X000516Y002875D01*
X000490Y002889D01*
X000465Y002906D01*
X000442Y002927D01*
X000423Y002950D01*
X000406Y002975D01*
X000393Y003002D01*
X000384Y003031D01*
X000378Y003061D01*
X000376Y003091D01*
X000474Y005454D02*
X000476Y005484D01*
X000482Y005514D01*
X000491Y005543D01*
X000504Y005570D01*
X000521Y005595D01*
X000540Y005618D01*
X000563Y005639D01*
X000588Y005656D01*
X000614Y005670D01*
X000643Y005680D01*
X000672Y005687D01*
X000702Y005690D01*
X000733Y005689D01*
X000763Y005684D01*
X000792Y005675D01*
X000819Y005663D01*
X000845Y005648D01*
X000869Y005629D01*
X000890Y005607D01*
X000908Y005583D01*
X000923Y005556D01*
X000934Y005528D01*
X000942Y005499D01*
X000946Y005469D01*
X000946Y005439D01*
X000942Y005409D01*
X000934Y005380D01*
X000923Y005352D01*
X000908Y005325D01*
X000890Y005301D01*
X000869Y005279D01*
X000845Y005260D01*
X000819Y005245D01*
X000792Y005233D01*
X000763Y005224D01*
X000733Y005219D01*
X000702Y005218D01*
X000672Y005221D01*
X000643Y005228D01*
X000614Y005238D01*
X000588Y005252D01*
X000563Y005269D01*
X000540Y005290D01*
X000521Y005313D01*
X000504Y005338D01*
X000491Y005365D01*
X000482Y005394D01*
X000476Y005424D01*
X000474Y005454D01*
X002836Y005552D02*
X002838Y005582D01*
X002844Y005612D01*
X002853Y005641D01*
X002866Y005668D01*
X002883Y005693D01*
X002902Y005716D01*
X002925Y005737D01*
X002950Y005754D01*
X002976Y005768D01*
X003005Y005778D01*
X003034Y005785D01*
X003064Y005788D01*
X003095Y005787D01*
X003125Y005782D01*
X003154Y005773D01*
X003181Y005761D01*
X003207Y005746D01*
X003231Y005727D01*
X003252Y005705D01*
X003270Y005681D01*
X003285Y005654D01*
X003296Y005626D01*
X003304Y005597D01*
X003308Y005567D01*
X003308Y005537D01*
X003304Y005507D01*
X003296Y005478D01*
X003285Y005450D01*
X003270Y005423D01*
X003252Y005399D01*
X003231Y005377D01*
X003207Y005358D01*
X003181Y005343D01*
X003154Y005331D01*
X003125Y005322D01*
X003095Y005317D01*
X003064Y005316D01*
X003034Y005319D01*
X003005Y005326D01*
X002976Y005336D01*
X002950Y005350D01*
X002925Y005367D01*
X002902Y005388D01*
X002883Y005411D01*
X002866Y005436D01*
X002853Y005463D01*
X002844Y005492D01*
X002838Y005522D01*
X002836Y005552D01*
X005199Y005454D02*
X005201Y005484D01*
X005207Y005514D01*
X005216Y005543D01*
X005229Y005570D01*
X005246Y005595D01*
X005265Y005618D01*
X005288Y005639D01*
X005313Y005656D01*
X005339Y005670D01*
X005368Y005680D01*
X005397Y005687D01*
X005427Y005690D01*
X005458Y005689D01*
X005488Y005684D01*
X005517Y005675D01*
X005544Y005663D01*
X005570Y005648D01*
X005594Y005629D01*
X005615Y005607D01*
X005633Y005583D01*
X005648Y005556D01*
X005659Y005528D01*
X005667Y005499D01*
X005671Y005469D01*
X005671Y005439D01*
X005667Y005409D01*
X005659Y005380D01*
X005648Y005352D01*
X005633Y005325D01*
X005615Y005301D01*
X005594Y005279D01*
X005570Y005260D01*
X005544Y005245D01*
X005517Y005233D01*
X005488Y005224D01*
X005458Y005219D01*
X005427Y005218D01*
X005397Y005221D01*
X005368Y005228D01*
X005339Y005238D01*
X005313Y005252D01*
X005288Y005269D01*
X005265Y005290D01*
X005246Y005313D01*
X005229Y005338D01*
X005216Y005365D01*
X005207Y005394D01*
X005201Y005424D01*
X005199Y005454D01*
X005297Y002993D02*
X005299Y003023D01*
X005305Y003053D01*
X005314Y003082D01*
X005327Y003109D01*
X005344Y003134D01*
X005363Y003157D01*
X005386Y003178D01*
X005411Y003195D01*
X005437Y003209D01*
X005466Y003219D01*
X005495Y003226D01*
X005525Y003229D01*
X005556Y003228D01*
X005586Y003223D01*
X005615Y003214D01*
X005642Y003202D01*
X005668Y003187D01*
X005692Y003168D01*
X005713Y003146D01*
X005731Y003122D01*
X005746Y003095D01*
X005757Y003067D01*
X005765Y003038D01*
X005769Y003008D01*
X005769Y002978D01*
X005765Y002948D01*
X005757Y002919D01*
X005746Y002891D01*
X005731Y002864D01*
X005713Y002840D01*
X005692Y002818D01*
X005668Y002799D01*
X005642Y002784D01*
X005615Y002772D01*
X005586Y002763D01*
X005556Y002758D01*
X005525Y002757D01*
X005495Y002760D01*
X005466Y002767D01*
X005437Y002777D01*
X005411Y002791D01*
X005386Y002808D01*
X005363Y002829D01*
X005344Y002852D01*
X005327Y002877D01*
X005314Y002904D01*
X005305Y002933D01*
X005299Y002963D01*
X005297Y002993D01*
X005199Y000729D02*
X005201Y000759D01*
X005207Y000789D01*
X005216Y000818D01*
X005229Y000845D01*
X005246Y000870D01*
X005265Y000893D01*
X005288Y000914D01*
X005313Y000931D01*
X005339Y000945D01*
X005368Y000955D01*
X005397Y000962D01*
X005427Y000965D01*
X005458Y000964D01*
X005488Y000959D01*
X005517Y000950D01*
X005544Y000938D01*
X005570Y000923D01*
X005594Y000904D01*
X005615Y000882D01*
X005633Y000858D01*
X005648Y000831D01*
X005659Y000803D01*
X005667Y000774D01*
X005671Y000744D01*
X005671Y000714D01*
X005667Y000684D01*
X005659Y000655D01*
X005648Y000627D01*
X005633Y000600D01*
X005615Y000576D01*
X005594Y000554D01*
X005570Y000535D01*
X005544Y000520D01*
X005517Y000508D01*
X005488Y000499D01*
X005458Y000494D01*
X005427Y000493D01*
X005397Y000496D01*
X005368Y000503D01*
X005339Y000513D01*
X005313Y000527D01*
X005288Y000544D01*
X005265Y000565D01*
X005246Y000588D01*
X005229Y000613D01*
X005216Y000640D01*
X005207Y000669D01*
X005201Y000699D01*
X005199Y000729D01*
X002836Y000631D02*
X002838Y000661D01*
X002844Y000691D01*
X002853Y000720D01*
X002866Y000747D01*
X002883Y000772D01*
X002902Y000795D01*
X002925Y000816D01*
X002950Y000833D01*
X002976Y000847D01*
X003005Y000857D01*
X003034Y000864D01*
X003064Y000867D01*
X003095Y000866D01*
X003125Y000861D01*
X003154Y000852D01*
X003181Y000840D01*
X003207Y000825D01*
X003231Y000806D01*
X003252Y000784D01*
X003270Y000760D01*
X003285Y000733D01*
X003296Y000705D01*
X003304Y000676D01*
X003308Y000646D01*
X003308Y000616D01*
X003304Y000586D01*
X003296Y000557D01*
X003285Y000529D01*
X003270Y000502D01*
X003252Y000478D01*
X003231Y000456D01*
X003207Y000437D01*
X003181Y000422D01*
X003154Y000410D01*
X003125Y000401D01*
X003095Y000396D01*
X003064Y000395D01*
X003034Y000398D01*
X003005Y000405D01*
X002976Y000415D01*
X002950Y000429D01*
X002925Y000446D01*
X002902Y000467D01*
X002883Y000490D01*
X002866Y000515D01*
X002853Y000542D01*
X002844Y000571D01*
X002838Y000601D01*
X002836Y000631D01*
D12*
X000710Y000729D03*
X000612Y003091D03*
X000710Y005454D03*
X003072Y005552D03*
X005435Y005454D03*
X005533Y002993D03*
X005435Y000729D03*
X003072Y000631D03*
D13*
X002698Y003091D03*
X003446Y003091D03*
D14*
X004726Y004233D03*
X004254Y004548D03*
X005435Y002284D03*
X005080Y001950D03*
X002738Y001674D03*
X000907Y001418D03*
X001793Y004942D03*
M02*
