G75*
%MOIN*%
%OFA0B0*%
%FSLAX24Y24*%
%IPPOS*%
%LPD*%
%AMOC8*
5,1,8,0,0,1.08239X$1,22.5*
%
%ADD10R,0.0315X0.0236*%
%ADD11R,0.0236X0.0315*%
%ADD12C,0.1349*%
%ADD13R,0.0276X0.0709*%
%ADD14R,0.0630X0.0866*%
%ADD15C,0.0302*%
%ADD16C,0.0157*%
%ADD17C,0.0236*%
%ADD18C,0.0079*%
D10*
G36*
X007129Y006962D02*
X006908Y006741D01*
X006741Y006908D01*
X006962Y007129D01*
X007129Y006962D01*
G37*
G36*
X007435Y007268D02*
X007214Y007047D01*
X007047Y007214D01*
X007268Y007435D01*
X007435Y007268D01*
G37*
G36*
X008473Y008640D02*
X008694Y008861D01*
X008861Y008694D01*
X008640Y008473D01*
X008473Y008640D01*
G37*
G36*
X008780Y008947D02*
X009001Y009168D01*
X009168Y009001D01*
X008947Y008780D01*
X008780Y008947D01*
G37*
X001517Y008781D03*
X001084Y008781D03*
X001084Y007994D03*
X001517Y007994D03*
X001517Y009569D03*
X001084Y009569D03*
X001084Y012324D03*
X001517Y012324D03*
X001517Y013112D03*
X001084Y013112D03*
X001084Y013899D03*
X001517Y013899D03*
X001517Y016655D03*
X001084Y016655D03*
X001084Y017443D03*
X001517Y017443D03*
X001517Y018230D03*
X001084Y018230D03*
G36*
X020166Y021081D02*
X020387Y021302D01*
X020554Y021135D01*
X020333Y020914D01*
X020166Y021081D01*
G37*
G36*
X020472Y021388D02*
X020693Y021609D01*
X020860Y021442D01*
X020639Y021221D01*
X020472Y021388D01*
G37*
G36*
X021260Y020600D02*
X021481Y020821D01*
X021648Y020654D01*
X021427Y020433D01*
X021260Y020600D01*
G37*
G36*
X020954Y020294D02*
X021175Y020515D01*
X021342Y020348D01*
X021121Y020127D01*
X020954Y020294D01*
G37*
D11*
X020277Y019431D03*
X020277Y018998D03*
X021852Y006281D03*
X021852Y005848D03*
X018624Y001517D03*
X018624Y001084D03*
X017836Y001084D03*
X017836Y001517D03*
X017049Y001517D03*
X017049Y001084D03*
X014293Y001084D03*
X014293Y001517D03*
X013506Y001517D03*
X013506Y001084D03*
X012718Y001084D03*
X012718Y001517D03*
X009923Y001545D03*
X009923Y001112D03*
X009167Y001112D03*
X009167Y001545D03*
X008364Y001545D03*
X008364Y001112D03*
X006458Y021754D03*
X006458Y022187D03*
X005907Y022187D03*
X005907Y021754D03*
D12*
X002686Y004718D03*
X004718Y002686D03*
D13*
X010061Y021419D03*
X010553Y021419D03*
X011045Y021419D03*
X011537Y021419D03*
X012029Y021419D03*
X016557Y021419D03*
X017049Y021419D03*
X017541Y021419D03*
D14*
X018466Y022718D03*
X015631Y022718D03*
X012954Y022718D03*
X009135Y022718D03*
D15*
X009651Y021265D03*
X010553Y020789D03*
X011112Y020757D03*
X011994Y020773D03*
X012718Y021301D03*
X011112Y022120D03*
X008072Y020198D03*
X006419Y020317D03*
X006419Y021301D03*
X005907Y021301D03*
X007324Y021773D03*
X004844Y018624D03*
X004785Y018092D03*
X003683Y016832D03*
X003683Y016084D03*
X004254Y015730D03*
X004805Y015435D03*
X004844Y016458D03*
X005868Y016458D03*
X005946Y015080D03*
X004844Y014293D03*
X004785Y013761D03*
X003683Y012502D03*
X003663Y011754D03*
X004254Y011399D03*
X003663Y010789D03*
X003072Y011399D03*
X002088Y012128D03*
X001517Y012738D03*
X001084Y012718D03*
X001517Y013525D03*
X002088Y014490D03*
X003269Y013702D03*
X002817Y012915D03*
X004844Y012128D03*
X004844Y011104D03*
X004883Y010631D03*
X005553Y010631D03*
X004844Y009962D03*
X004785Y009431D03*
X003663Y008171D03*
X003663Y007423D03*
X004254Y007069D03*
X004844Y006419D03*
X004549Y006124D03*
X004254Y005828D03*
X003958Y005533D03*
X005139Y006714D03*
X005435Y006419D03*
X006419Y005435D03*
X006714Y005139D03*
X006419Y004844D03*
X006124Y004549D03*
X005828Y004254D03*
X005533Y003958D03*
X007797Y002088D03*
X008781Y001545D03*
X009569Y001545D03*
X009569Y001112D03*
X010198Y002088D03*
X009372Y002836D03*
X009805Y003663D03*
X010553Y003663D03*
X010907Y004254D03*
X011261Y004765D03*
X011734Y004765D03*
X012403Y004785D03*
X012856Y004785D03*
X011734Y003663D03*
X010946Y003072D03*
X012128Y002088D03*
X013112Y001517D03*
X013899Y001517D03*
X013899Y001084D03*
X014490Y002088D03*
X013722Y002817D03*
X012915Y003269D03*
X014116Y003663D03*
X014844Y003663D03*
X015277Y004254D03*
X015592Y004805D03*
X016084Y005927D03*
X016734Y004785D03*
X017187Y004785D03*
X018387Y005907D03*
X018820Y005946D03*
X018820Y004765D03*
X019608Y004254D03*
X019175Y003663D03*
X018446Y003663D03*
X018053Y002817D03*
X017246Y003269D03*
X016458Y002088D03*
X015277Y003072D03*
X014490Y004765D03*
X014490Y005946D03*
X012443Y008506D03*
X011655Y008387D03*
X010553Y008033D03*
X009205Y008742D03*
X008289Y008303D03*
X007600Y007600D03*
X007156Y006694D03*
X005828Y008112D03*
X004765Y007797D03*
X003072Y007069D03*
X002088Y007797D03*
X001517Y008407D03*
X001084Y008387D03*
X001517Y009194D03*
X002088Y010159D03*
X003269Y009372D03*
X002817Y008584D03*
X006222Y011576D03*
X005986Y012128D03*
X008072Y011183D03*
X009746Y010454D03*
X011458Y011431D03*
X012222Y010655D03*
X013151Y011340D03*
X013210Y012502D03*
X014391Y012502D03*
X016025Y013604D03*
X016025Y014391D03*
X015553Y015080D03*
X015513Y015513D03*
X015159Y017206D03*
X016045Y017580D03*
X016045Y018250D03*
X016557Y019273D03*
X017049Y019805D03*
X017757Y020789D03*
X017817Y022423D03*
X019529Y021143D03*
X019908Y020631D03*
X020277Y020277D03*
X020277Y019844D03*
X020868Y019829D03*
X020750Y018899D03*
X021773Y017521D03*
X020710Y017049D03*
X020198Y015828D03*
X018309Y015474D03*
X017757Y015671D03*
X017679Y016065D03*
X019175Y013742D03*
X017482Y012679D03*
X016616Y012443D03*
X015238Y010513D03*
X014962Y010120D03*
X017482Y009332D03*
X017876Y009805D03*
X017836Y010238D03*
X018663Y008939D03*
X020120Y009844D03*
X020041Y011143D03*
X022344Y010257D03*
X022344Y009588D03*
X020474Y007815D03*
X022265Y006281D03*
X021773Y005395D03*
X020710Y003781D03*
X019608Y003072D03*
X018820Y002088D03*
X018230Y001517D03*
X018230Y001084D03*
X017443Y001517D03*
X019923Y005317D03*
X012561Y013604D03*
X012580Y014588D03*
X012639Y015041D03*
X013072Y015080D03*
X013348Y015395D03*
X013112Y015868D03*
X012482Y016025D03*
X012521Y015572D03*
X012246Y016576D03*
X011813Y016576D03*
X011419Y016576D03*
X010139Y016990D03*
X008663Y016891D03*
X008167Y016356D03*
X008545Y015710D03*
X009096Y015572D03*
X009687Y014411D03*
X011419Y015120D03*
X013309Y017167D03*
X012797Y017364D03*
X013801Y016006D03*
X014765Y018702D03*
X007836Y018387D03*
X007462Y017895D03*
X003269Y018033D03*
X002817Y017246D03*
X002088Y016458D03*
X001517Y017069D03*
X001084Y017049D03*
X001517Y017856D03*
X002088Y018820D03*
X003072Y015730D03*
X010277Y006419D03*
X010159Y005789D03*
X010946Y005750D03*
X008525Y004785D03*
X007994Y004844D03*
X008545Y003269D03*
D16*
X009923Y001813D02*
X010198Y002088D01*
X009923Y001813D02*
X009923Y001545D01*
X009569Y001545D02*
X009167Y001545D01*
X008781Y001545D02*
X008364Y001545D01*
X008364Y001112D02*
X009167Y001112D01*
X009569Y001112D01*
X009923Y001112D01*
X012718Y001084D02*
X013506Y001084D01*
X013899Y001084D01*
X014293Y001084D01*
X014293Y001517D02*
X014293Y001891D01*
X014490Y002088D01*
X017049Y001517D02*
X017443Y001517D01*
X017836Y001517D02*
X018230Y001517D01*
X018624Y001517D02*
X018624Y001891D01*
X018820Y002088D01*
X018624Y001084D02*
X018230Y001084D01*
X017836Y001084D01*
X017049Y001084D01*
X021773Y005395D02*
X021852Y005474D01*
X021852Y005848D01*
X021852Y006281D02*
X022265Y006281D01*
X020750Y018899D02*
X020651Y018998D01*
X020277Y018998D01*
X020277Y019431D02*
X020277Y019844D01*
X020277Y020277D02*
X020277Y020710D01*
X020360Y020793D01*
X020360Y021108D01*
X020636Y021415D02*
X020395Y021655D01*
X020041Y021655D01*
X019529Y021143D01*
X020636Y021415D02*
X020666Y021415D01*
X021454Y020627D01*
X021148Y020321D02*
X021148Y020109D01*
X020868Y019829D01*
X011994Y020773D02*
X011994Y021265D01*
X012029Y021301D01*
X012029Y021419D01*
X011537Y021419D02*
X011537Y021970D01*
X011387Y022120D01*
X011112Y022120D01*
X011045Y021419D02*
X011045Y021045D01*
X011112Y020978D01*
X011112Y020757D01*
X010553Y020789D02*
X010553Y021419D01*
X010061Y021419D02*
X009907Y021265D01*
X009651Y021265D01*
X007324Y021773D02*
X006911Y022187D01*
X006458Y022187D01*
X005907Y022187D01*
X005907Y021754D02*
X005907Y021301D01*
X006419Y021301D02*
X006419Y021714D01*
X006458Y021754D01*
X001517Y018230D02*
X001517Y017856D01*
X001517Y017443D02*
X001517Y017246D01*
X001517Y017069D01*
X001517Y016655D02*
X001891Y016655D01*
X002088Y016458D01*
X001084Y016655D02*
X001084Y017049D01*
X001084Y017443D01*
X001084Y018230D01*
X001084Y013899D02*
X001084Y013112D01*
X001084Y012718D01*
X001084Y012324D01*
X001517Y012324D02*
X001891Y012324D01*
X002088Y012128D01*
X001517Y012738D02*
X001517Y012915D01*
X001517Y013112D01*
X001517Y013525D02*
X001517Y013899D01*
X001517Y009569D02*
X001517Y009194D01*
X001517Y008781D02*
X001517Y008407D01*
X001517Y007994D02*
X001891Y007994D01*
X002088Y007797D01*
X001084Y007994D02*
X001084Y008387D01*
X001084Y008781D01*
X001084Y009569D01*
D17*
X006935Y006935D02*
X007156Y006694D01*
X007241Y007241D02*
X007241Y007241D01*
X007600Y007600D01*
X008289Y008303D02*
X008653Y008667D01*
X008667Y008667D01*
X008974Y008974D02*
X009205Y008742D01*
X012718Y001517D02*
X013112Y001517D01*
X013506Y001517D02*
X013899Y001517D01*
D18*
X014490Y002088D02*
X014116Y002462D01*
X014116Y003663D01*
X013899Y004057D02*
X013506Y003663D01*
X011734Y003663D01*
X010553Y003663D01*
X009805Y003663D02*
X009805Y002482D01*
X010198Y002088D01*
X009372Y002836D02*
X008939Y003269D01*
X008545Y003269D01*
X008348Y004490D02*
X010671Y004490D01*
X010750Y004569D01*
X011025Y004569D01*
X011143Y004450D01*
X012108Y004450D01*
X012403Y004785D01*
X012659Y004490D01*
X015080Y004490D01*
X015159Y004569D01*
X015395Y004569D01*
X015474Y004490D01*
X016478Y004490D01*
X016734Y004785D01*
X017187Y004785D02*
X018092Y004785D01*
X018387Y005080D01*
X018387Y005907D01*
X018820Y005946D02*
X018820Y004765D01*
X018781Y004057D02*
X018230Y004057D01*
X017836Y003663D01*
X014844Y003663D01*
X014450Y004057D01*
X013899Y004057D01*
X014490Y004765D02*
X014490Y005946D01*
X015592Y004805D02*
X015592Y010671D01*
X014805Y011458D01*
X014805Y016852D01*
X014490Y017167D01*
X013309Y017167D01*
X013072Y017364D02*
X012797Y017364D01*
X013072Y017364D02*
X013191Y017482D01*
X014411Y017482D01*
X015041Y016852D01*
X015041Y011537D01*
X015946Y010631D01*
X015946Y010277D01*
X019923Y006301D01*
X019923Y005317D01*
X018781Y004057D02*
X019175Y003663D01*
X018446Y003663D02*
X018446Y002462D01*
X018820Y002088D01*
X018053Y002817D02*
X017698Y002817D01*
X017246Y003269D01*
X013722Y002817D02*
X013368Y002817D01*
X012915Y003269D01*
X011734Y004765D02*
X011734Y007876D01*
X012009Y008151D01*
X012009Y008781D01*
X014096Y010868D01*
X014096Y013112D01*
X013899Y013309D01*
X013899Y015631D01*
X013801Y015730D01*
X013801Y016006D01*
X013348Y015868D02*
X013702Y015513D01*
X013702Y013230D01*
X013939Y012994D01*
X013939Y011143D01*
X011261Y008466D01*
X011261Y004765D01*
X010946Y005750D02*
X010946Y008545D01*
X013781Y011380D01*
X013781Y012876D01*
X013506Y013151D01*
X013506Y015238D01*
X013348Y015395D01*
X013348Y015868D02*
X013112Y015868D01*
X012482Y016025D02*
X008860Y016025D01*
X008545Y015710D01*
X009096Y015572D02*
X012521Y015572D01*
X012757Y013939D02*
X013191Y013506D01*
X013191Y012521D01*
X013210Y012502D01*
X013151Y011340D02*
X012403Y011340D01*
X011931Y010868D01*
X007679Y010868D01*
X007443Y011104D01*
X004844Y011104D01*
X004883Y010631D02*
X005553Y010631D01*
X004844Y009962D02*
X004569Y010238D01*
X004569Y011734D01*
X004450Y011852D01*
X004450Y013899D01*
X004844Y014293D01*
X004529Y014608D01*
X004529Y017797D01*
X004490Y017836D01*
X004490Y018269D01*
X004844Y018624D01*
X006340Y018624D01*
X006773Y018191D01*
X007600Y018191D01*
X007718Y018072D01*
X014293Y018072D01*
X015159Y017206D01*
X015710Y018387D02*
X015946Y018624D01*
X016340Y018624D01*
X016616Y018348D01*
X016616Y012443D01*
X017482Y012679D02*
X017482Y009332D01*
X017876Y009805D02*
X018072Y010041D01*
X019726Y010041D01*
X021340Y011655D01*
X021340Y019096D01*
X021025Y019411D01*
X020868Y019411D01*
X020592Y019687D01*
X020592Y019962D01*
X020277Y020277D01*
X020297Y019450D02*
X020277Y019431D01*
X020297Y019450D02*
X020592Y019450D01*
X020789Y019254D01*
X020946Y019254D01*
X021183Y019017D01*
X021183Y011734D01*
X019687Y010238D01*
X017836Y010238D01*
X012757Y013939D02*
X006301Y013939D01*
X004805Y015435D01*
X004844Y016458D02*
X005868Y016458D01*
X003683Y016084D02*
X003683Y013013D01*
X003978Y012718D01*
X003978Y012285D01*
X003663Y011970D01*
X003663Y011754D01*
X003663Y010789D01*
X003663Y008702D01*
X003978Y008387D01*
X003978Y008033D01*
X003663Y007718D01*
X003663Y007423D01*
X003663Y008171D02*
X002462Y008171D01*
X002088Y007797D01*
X002817Y008584D02*
X002817Y008919D01*
X003269Y009372D01*
X004844Y009962D02*
X006380Y008427D01*
X006380Y006852D01*
X007994Y005238D01*
X007994Y004844D01*
X008348Y004490D01*
X005513Y007797D02*
X005828Y008112D01*
X005513Y007797D02*
X004765Y007797D01*
X006222Y011576D02*
X008250Y013604D01*
X012561Y013604D01*
X015710Y018387D02*
X007836Y018387D01*
X008072Y018624D01*
X008072Y020198D01*
X011112Y020757D02*
X011435Y020435D01*
X012206Y020435D01*
X012718Y020946D01*
X012718Y021301D01*
X016557Y021419D02*
X016557Y019273D01*
X017049Y019805D02*
X017049Y021419D01*
X017541Y021419D02*
X017541Y021006D01*
X017757Y020789D01*
X005986Y012128D02*
X004844Y012128D01*
X003683Y012502D02*
X002462Y012502D01*
X002088Y012128D01*
X002817Y012915D02*
X002817Y013250D01*
X003269Y013702D01*
X002088Y016458D02*
X002462Y016832D01*
X003683Y016832D01*
X002817Y017246D02*
X002817Y017580D01*
X003269Y018033D01*
M02*
