G75*
%MOIN*%
%OFA0B0*%
%FSLAX24Y24*%
%IPPOS*%
%LPD*%
%AMOC8*
5,1,8,0,0,1.08239X$1,22.5*
%
%ADD10C,0.0059*%
%ADD11C,0.0079*%
%ADD12C,0.0040*%
%ADD13C,0.0060*%
%ADD14C,0.0120*%
%ADD15C,0.0050*%
%ADD16C,0.0030*%
%ADD17C,0.0118*%
%ADD18C,0.0098*%
%ADD19C,0.0020*%
%ADD20C,0.0100*%
D10*
X007580Y012718D02*
X007580Y013033D01*
X021261Y010159D02*
X021498Y010395D01*
X021498Y010828D01*
D11*
X022501Y008545D02*
X022503Y008553D01*
X022508Y008560D01*
X022515Y008564D01*
X022523Y008565D01*
X022531Y008562D01*
X022537Y008557D01*
X022541Y008549D01*
X022541Y008541D01*
X022537Y008533D01*
X022531Y008528D01*
X022523Y008525D01*
X022515Y008526D01*
X022508Y008530D01*
X022503Y008537D01*
X022501Y008545D01*
X022403Y008545D02*
X022405Y008566D01*
X022411Y008586D01*
X022420Y008606D01*
X022432Y008623D01*
X022447Y008637D01*
X022465Y008649D01*
X022485Y008657D01*
X022505Y008662D01*
X022526Y008663D01*
X022547Y008660D01*
X022567Y008654D01*
X022586Y008643D01*
X022603Y008630D01*
X022616Y008614D01*
X022627Y008596D01*
X022635Y008576D01*
X022639Y008556D01*
X022639Y008534D01*
X022635Y008514D01*
X022627Y008494D01*
X022616Y008476D01*
X022603Y008460D01*
X022586Y008447D01*
X022567Y008436D01*
X022547Y008430D01*
X022526Y008427D01*
X022505Y008428D01*
X022485Y008433D01*
X022465Y008441D01*
X022447Y008453D01*
X022432Y008467D01*
X022420Y008484D01*
X022411Y008504D01*
X022405Y008524D01*
X022403Y008545D01*
X022423Y008446D02*
X021852Y007876D01*
X022128Y007876D01*
X021852Y008151D01*
X021852Y007876D01*
X021852Y007921D02*
X022082Y007921D01*
X022005Y007998D02*
X021852Y007998D01*
X021852Y008075D02*
X021928Y008075D01*
X022620Y008446D02*
X023191Y007876D01*
X022876Y007876D01*
X023191Y008191D01*
X023191Y007876D01*
X023191Y007921D02*
X022921Y007921D01*
X022998Y007998D02*
X023191Y007998D01*
X023191Y008075D02*
X023075Y008075D01*
X023153Y008153D02*
X023191Y008153D01*
X020710Y002679D02*
X020710Y002443D01*
X020596Y002360D02*
X020824Y002360D01*
X020901Y002437D02*
X020519Y002437D01*
X020513Y002443D02*
X020710Y002246D01*
X020907Y002443D01*
X020513Y002443D01*
X020673Y002282D02*
X020747Y002282D01*
X010907Y010198D02*
X010710Y010002D01*
X010513Y010198D01*
X010907Y010198D01*
X010870Y010161D02*
X010551Y010161D01*
X010628Y010084D02*
X010792Y010084D01*
X010715Y010006D02*
X010705Y010006D01*
X010710Y010198D02*
X010710Y010435D01*
X003151Y019805D02*
X002954Y020002D01*
X003348Y020002D01*
X003151Y019805D01*
X003140Y019816D02*
X003162Y019816D01*
X003240Y019893D02*
X003063Y019893D01*
X002985Y019970D02*
X003317Y019970D01*
X003151Y020002D02*
X003151Y020238D01*
X021143Y015395D02*
X021340Y015198D01*
X021537Y015395D01*
X021143Y015395D01*
X021203Y015336D02*
X021478Y015336D01*
X021401Y015259D02*
X021280Y015259D01*
X021340Y015395D02*
X021340Y015631D01*
D12*
X021229Y016242D02*
X021334Y016347D01*
X021334Y016557D01*
X021450Y016399D02*
X021660Y016399D01*
X021555Y016504D02*
X021555Y016294D01*
X021229Y016242D02*
X021124Y016347D01*
X021124Y016557D01*
X021124Y014667D02*
X021281Y014667D01*
X021334Y014614D01*
X021334Y014510D01*
X021281Y014457D01*
X021124Y014457D01*
X021124Y014352D02*
X021124Y014667D01*
X021229Y014457D02*
X021334Y014352D01*
X021450Y014352D02*
X021660Y014562D01*
X021450Y014562D02*
X021660Y014352D01*
X021334Y013722D02*
X021124Y013722D01*
X021229Y013722D02*
X021229Y013407D01*
X021450Y013407D02*
X021660Y013617D01*
X021450Y013617D02*
X021660Y013407D01*
X022592Y009076D02*
X022802Y009076D01*
X022802Y009024D01*
X022592Y008814D01*
X022592Y008762D01*
X022802Y008762D01*
X022475Y008919D02*
X022266Y008919D01*
X022371Y009024D02*
X022371Y008814D01*
X021795Y007738D02*
X021585Y007423D01*
X021469Y007580D02*
X021259Y007580D01*
X021364Y007476D02*
X021364Y007685D01*
X021585Y007738D02*
X021795Y007423D01*
X022974Y007620D02*
X023184Y007620D01*
X023079Y007725D02*
X023079Y007515D01*
X023301Y007725D02*
X023405Y007620D01*
X023405Y007463D01*
X023405Y007620D02*
X023510Y007725D01*
X023510Y007777D01*
X023301Y007777D02*
X023301Y007725D01*
X019290Y005061D02*
X019054Y005061D01*
X019054Y004884D01*
X019172Y004943D01*
X019231Y004943D01*
X019290Y004884D01*
X019290Y004766D01*
X019231Y004707D01*
X019113Y004707D01*
X019054Y004766D01*
X018927Y004707D02*
X018691Y004707D01*
X018809Y004707D02*
X018809Y005061D01*
X018691Y004943D01*
X018565Y005061D02*
X018565Y004766D01*
X018506Y004707D01*
X018388Y004707D01*
X018329Y004766D01*
X018329Y005061D01*
X018998Y002620D02*
X018998Y002325D01*
X019057Y002266D01*
X019175Y002266D01*
X019234Y002325D01*
X019234Y002620D01*
X019360Y002502D02*
X019478Y002620D01*
X019478Y002266D01*
X019360Y002266D02*
X019596Y002266D01*
X019723Y002443D02*
X019959Y002443D01*
X019900Y002620D02*
X019723Y002443D01*
X019900Y002266D02*
X019900Y002620D01*
X015550Y002561D02*
X015491Y002620D01*
X015373Y002620D01*
X015314Y002561D01*
X015550Y002561D02*
X015550Y002502D01*
X015314Y002266D01*
X015550Y002266D01*
X015187Y002266D02*
X014951Y002266D01*
X015069Y002266D02*
X015069Y002620D01*
X014951Y002502D01*
X014825Y002620D02*
X014825Y002325D01*
X014766Y002266D01*
X014648Y002266D01*
X014589Y002325D01*
X014589Y002620D01*
X014596Y004707D02*
X014360Y004707D01*
X014478Y004707D02*
X014478Y005061D01*
X014360Y004943D01*
X014234Y005061D02*
X014234Y004766D01*
X014175Y004707D01*
X014057Y004707D01*
X013998Y004766D01*
X013998Y005061D01*
X014723Y005002D02*
X014782Y005061D01*
X014900Y005061D01*
X014959Y005002D01*
X014959Y004943D01*
X014900Y004884D01*
X014959Y004825D01*
X014959Y004766D01*
X014900Y004707D01*
X014782Y004707D01*
X014723Y004766D01*
X014841Y004884D02*
X014900Y004884D01*
X015205Y007659D02*
X015310Y007764D01*
X015310Y007974D01*
X015427Y007817D02*
X015636Y007817D01*
X015531Y007922D02*
X015531Y007712D01*
X015205Y007659D02*
X015100Y007764D01*
X015100Y007974D01*
X010525Y005061D02*
X010525Y004707D01*
X010407Y004707D02*
X010643Y004707D01*
X010407Y004943D02*
X010525Y005061D01*
X010163Y005061D02*
X010163Y004707D01*
X010045Y004707D02*
X010281Y004707D01*
X010045Y004943D02*
X010163Y005061D01*
X009918Y005061D02*
X009918Y004766D01*
X009859Y004707D01*
X009741Y004707D01*
X009682Y004766D01*
X009682Y005061D01*
X009918Y002659D02*
X009918Y002364D01*
X009977Y002305D01*
X010095Y002305D01*
X010154Y002364D01*
X010154Y002659D01*
X010281Y002541D02*
X010399Y002659D01*
X010399Y002305D01*
X010281Y002305D02*
X010517Y002305D01*
X010643Y002364D02*
X010879Y002600D01*
X010879Y002364D01*
X010820Y002305D01*
X010702Y002305D01*
X010643Y002364D01*
X010643Y002600D01*
X010702Y002659D01*
X010820Y002659D01*
X010879Y002600D01*
X007276Y003962D02*
X007276Y004070D01*
X007167Y004179D01*
X007059Y004179D01*
X007004Y004342D02*
X006896Y004450D01*
X006950Y004396D02*
X006679Y004125D01*
X006570Y004125D01*
X006516Y004179D01*
X006516Y004287D01*
X006787Y003908D02*
X007222Y003908D01*
X007276Y003962D01*
X007004Y003691D02*
X006787Y003908D01*
X004482Y006557D02*
X004364Y006557D01*
X004305Y006616D01*
X004305Y006734D02*
X004423Y006793D01*
X004482Y006793D01*
X004541Y006734D01*
X004541Y006616D01*
X004482Y006557D01*
X004305Y006734D02*
X004305Y006911D01*
X004541Y006911D01*
X004178Y006911D02*
X004178Y006616D01*
X004119Y006557D01*
X004001Y006557D01*
X003942Y006616D01*
X003942Y006911D01*
X003360Y006734D02*
X003124Y006734D01*
X003301Y006911D01*
X003301Y006557D01*
X002997Y006616D02*
X002997Y006911D01*
X002761Y006911D02*
X002761Y006616D01*
X002820Y006557D01*
X002938Y006557D01*
X002997Y006616D01*
X002938Y010888D02*
X002820Y010888D01*
X002761Y010947D01*
X002761Y011242D01*
X002997Y011242D02*
X002997Y010947D01*
X002938Y010888D01*
X003124Y010947D02*
X003124Y011065D01*
X003301Y011065D01*
X003360Y011006D01*
X003360Y010947D01*
X003301Y010888D01*
X003183Y010888D01*
X003124Y010947D01*
X003124Y011065D02*
X003242Y011183D01*
X003360Y011242D01*
X003942Y011242D02*
X003942Y010947D01*
X004001Y010888D01*
X004119Y010888D01*
X004178Y010947D01*
X004178Y011242D01*
X004305Y011242D02*
X004541Y011242D01*
X004541Y011183D01*
X004305Y010947D01*
X004305Y010888D01*
X004364Y015218D02*
X004482Y015218D01*
X004541Y015277D01*
X004541Y015513D01*
X004482Y015572D01*
X004364Y015572D01*
X004305Y015513D01*
X004305Y015454D01*
X004364Y015395D01*
X004541Y015395D01*
X004364Y015218D02*
X004305Y015277D01*
X004178Y015277D02*
X004119Y015218D01*
X004001Y015218D01*
X003942Y015277D01*
X003942Y015572D01*
X004178Y015572D02*
X004178Y015277D01*
X003360Y015277D02*
X003301Y015218D01*
X003183Y015218D01*
X003124Y015277D01*
X003124Y015336D01*
X003183Y015395D01*
X003301Y015395D01*
X003360Y015336D01*
X003360Y015277D01*
X003301Y015395D02*
X003360Y015454D01*
X003360Y015513D01*
X003301Y015572D01*
X003183Y015572D01*
X003124Y015513D01*
X003124Y015454D01*
X003183Y015395D01*
X002997Y015277D02*
X002938Y015218D01*
X002820Y015218D01*
X002761Y015277D01*
X002761Y015572D01*
X002997Y015572D02*
X002997Y015277D01*
X007930Y020218D02*
X007871Y020277D01*
X007871Y020572D01*
X008107Y020572D02*
X008107Y020277D01*
X008048Y020218D01*
X007930Y020218D01*
X008234Y020218D02*
X008470Y020454D01*
X008470Y020513D01*
X008411Y020572D01*
X008293Y020572D01*
X008234Y020513D01*
X008234Y020218D02*
X008470Y020218D01*
X008596Y020218D02*
X008832Y020218D01*
X008714Y020218D02*
X008714Y020572D01*
X008596Y020454D01*
X011675Y018604D02*
X011675Y018394D01*
X011780Y018289D01*
X011885Y018394D01*
X011885Y018604D01*
X012001Y018447D02*
X012211Y018447D01*
X012106Y018551D02*
X012106Y018342D01*
X016321Y016821D02*
X016321Y016437D01*
X016398Y016360D01*
X016551Y016360D01*
X016628Y016437D01*
X016628Y016821D01*
X016781Y016667D02*
X016935Y016821D01*
X016935Y016360D01*
X017088Y016360D02*
X016781Y016360D01*
D13*
X015331Y019205D02*
X015331Y019506D01*
X015181Y019657D01*
X015030Y019506D01*
X015030Y019205D01*
X015030Y019431D02*
X015331Y019431D01*
X014389Y019506D02*
X014238Y019205D01*
X014087Y019506D01*
X013917Y019431D02*
X013917Y019356D01*
X013616Y019356D01*
X013616Y019431D02*
X013691Y019506D01*
X013842Y019506D01*
X013917Y019431D01*
X013842Y019205D02*
X013691Y019205D01*
X013616Y019280D01*
X013616Y019431D01*
X013446Y019431D02*
X013446Y019582D01*
X013371Y019657D01*
X013145Y019657D01*
X013145Y019205D01*
X013145Y019356D02*
X013371Y019356D01*
X013446Y019431D01*
X013295Y019356D02*
X013446Y019205D01*
X015116Y022866D02*
X015116Y023318D01*
X015342Y023318D01*
X015418Y023243D01*
X015418Y023092D01*
X015342Y023017D01*
X015116Y023017D01*
X015267Y023017D02*
X015418Y022866D01*
X015587Y022866D02*
X015889Y022866D01*
X016059Y022942D02*
X016134Y022866D01*
X016285Y022866D01*
X016360Y022942D01*
X016360Y023017D01*
X016285Y023092D01*
X016134Y023092D01*
X016059Y023168D01*
X016059Y023243D01*
X016134Y023318D01*
X016285Y023318D01*
X016360Y023243D01*
X016530Y023318D02*
X016530Y022866D01*
X016831Y022866D01*
X016681Y023092D02*
X016530Y023092D01*
X016530Y023318D02*
X016831Y023318D01*
X017001Y023318D02*
X017303Y023318D01*
X017152Y023318D02*
X017152Y022866D01*
X015889Y023318D02*
X015587Y023318D01*
X015587Y022866D01*
X015587Y023092D02*
X015738Y023092D01*
X009189Y022942D02*
X009114Y022866D01*
X008963Y022866D01*
X008888Y022942D01*
X008888Y023243D01*
X008963Y023318D01*
X009114Y023318D01*
X009189Y023243D01*
X008724Y023318D02*
X008574Y023318D01*
X008649Y023318D02*
X008649Y022866D01*
X008574Y022866D02*
X008724Y022866D01*
X008404Y022866D02*
X008404Y023318D01*
X008253Y023168D01*
X008102Y023318D01*
X008102Y022866D01*
X007987Y017876D02*
X007987Y017796D01*
X008867Y017796D02*
X008867Y017876D01*
X008167Y015799D02*
X008167Y015386D01*
X008030Y015386D02*
X008305Y015386D01*
X008030Y015661D02*
X008167Y015799D01*
X007870Y015730D02*
X007870Y015455D01*
X007801Y015386D01*
X007595Y015386D01*
X007595Y015799D01*
X007801Y015799D01*
X007870Y015730D01*
X007435Y015799D02*
X007160Y015799D01*
X007160Y015386D01*
X007435Y015386D01*
X007297Y015592D02*
X007160Y015592D01*
X007000Y015386D02*
X006724Y015386D01*
X006724Y015799D01*
X006724Y014696D02*
X006724Y014284D01*
X007000Y014284D01*
X007160Y014284D02*
X007435Y014284D01*
X007595Y014284D02*
X007801Y014284D01*
X007870Y014352D01*
X007870Y014628D01*
X007801Y014696D01*
X007595Y014696D01*
X007595Y014284D01*
X007297Y014490D02*
X007160Y014490D01*
X007160Y014696D02*
X007160Y014284D01*
X007160Y014696D02*
X007435Y014696D01*
X008030Y014628D02*
X008098Y014696D01*
X008236Y014696D01*
X008305Y014628D01*
X008305Y014559D01*
X008030Y014284D01*
X008305Y014284D01*
X007998Y013594D02*
X007791Y013594D01*
X007791Y013181D01*
X007998Y013181D01*
X008067Y013250D01*
X008067Y013525D01*
X007998Y013594D01*
X007632Y013456D02*
X007632Y013181D01*
X007632Y013388D02*
X007356Y013388D01*
X007356Y013456D02*
X007494Y013594D01*
X007632Y013456D01*
X007356Y013456D02*
X007356Y013181D01*
X007197Y013250D02*
X007128Y013181D01*
X006921Y013181D01*
X006921Y013594D01*
X007128Y013594D01*
X007197Y013525D01*
X007197Y013456D01*
X007128Y013388D01*
X006921Y013388D01*
X007128Y013388D02*
X007197Y013319D01*
X007197Y013250D01*
X007236Y010996D02*
X007236Y010583D01*
X006961Y010996D01*
X006961Y010583D01*
X007396Y010583D02*
X007671Y010858D01*
X007671Y010927D01*
X007602Y010996D01*
X007465Y010996D01*
X007396Y010927D01*
X007396Y010583D02*
X007671Y010583D01*
X006801Y010996D02*
X006526Y010996D01*
X006663Y010996D02*
X006663Y010583D01*
X006366Y010652D02*
X006297Y010583D01*
X006091Y010583D01*
X006091Y010996D01*
X006297Y010996D01*
X006366Y010927D01*
X006366Y010858D01*
X006297Y010789D01*
X006091Y010789D01*
X006297Y010789D02*
X006366Y010720D01*
X006366Y010652D01*
X001592Y011055D02*
X001290Y011055D01*
X001592Y011357D01*
X001592Y011432D01*
X001516Y011507D01*
X001366Y011507D01*
X001290Y011432D01*
X001120Y011432D02*
X001045Y011507D01*
X000894Y011507D01*
X000819Y011432D01*
X000819Y011357D01*
X000894Y011281D01*
X001045Y011281D01*
X001120Y011206D01*
X001120Y011131D01*
X001045Y011055D01*
X000894Y011055D01*
X000819Y011131D01*
X000894Y007177D02*
X000819Y007101D01*
X000819Y007026D01*
X000894Y006951D01*
X001045Y006951D01*
X001120Y006875D01*
X001120Y006800D01*
X001045Y006724D01*
X000894Y006724D01*
X000819Y006800D01*
X001120Y007101D02*
X001045Y007177D01*
X000894Y007177D01*
X001290Y007026D02*
X001441Y007177D01*
X001441Y006724D01*
X001290Y006724D02*
X001592Y006724D01*
X001516Y015386D02*
X001366Y015386D01*
X001290Y015461D01*
X001120Y015461D02*
X001120Y015537D01*
X001045Y015612D01*
X000894Y015612D01*
X000819Y015687D01*
X000819Y015763D01*
X000894Y015838D01*
X001045Y015838D01*
X001120Y015763D01*
X001290Y015763D02*
X001366Y015838D01*
X001516Y015838D01*
X001592Y015763D01*
X001592Y015687D01*
X001516Y015612D01*
X001592Y015537D01*
X001592Y015461D01*
X001516Y015386D01*
X001516Y015612D02*
X001441Y015612D01*
X001120Y015461D02*
X001045Y015386D01*
X000894Y015386D01*
X000819Y015461D01*
X010779Y001949D02*
X011005Y001723D01*
X011005Y002025D01*
X011231Y001949D02*
X010779Y001949D01*
X010855Y001554D02*
X010779Y001478D01*
X010779Y001327D01*
X010855Y001252D01*
X010930Y001252D01*
X011005Y001327D01*
X011005Y001478D01*
X011081Y001554D01*
X011156Y001554D01*
X011231Y001478D01*
X011231Y001327D01*
X011156Y001252D01*
X015110Y001327D02*
X015185Y001252D01*
X015261Y001252D01*
X015336Y001327D01*
X015336Y001478D01*
X015411Y001554D01*
X015487Y001554D01*
X015562Y001478D01*
X015562Y001327D01*
X015487Y001252D01*
X015110Y001327D02*
X015110Y001478D01*
X015185Y001554D01*
X015110Y001723D02*
X015336Y001723D01*
X015261Y001874D01*
X015261Y001949D01*
X015336Y002025D01*
X015487Y002025D01*
X015562Y001949D01*
X015562Y001799D01*
X015487Y001723D01*
X015110Y001723D02*
X015110Y002025D01*
X019441Y002025D02*
X019516Y001874D01*
X019667Y001723D01*
X019667Y001949D01*
X019742Y002025D01*
X019817Y002025D01*
X019893Y001949D01*
X019893Y001799D01*
X019817Y001723D01*
X019667Y001723D01*
X019742Y001554D02*
X019817Y001554D01*
X019893Y001478D01*
X019893Y001327D01*
X019817Y001252D01*
X019667Y001327D02*
X019667Y001478D01*
X019742Y001554D01*
X019516Y001554D02*
X019441Y001478D01*
X019441Y001327D01*
X019516Y001252D01*
X019591Y001252D01*
X019667Y001327D01*
X021803Y004205D02*
X022029Y004205D01*
X022105Y004280D01*
X022105Y004356D01*
X022029Y004431D01*
X021803Y004431D01*
X021803Y004205D02*
X021803Y004657D01*
X022029Y004657D01*
X022105Y004582D01*
X022105Y004506D01*
X022029Y004431D01*
X022274Y004657D02*
X022576Y004657D01*
X022425Y004657D02*
X022425Y004205D01*
X022746Y004205D02*
X022746Y004657D01*
X023047Y004205D01*
X023047Y004657D01*
X023100Y016606D02*
X023100Y017059D01*
X023327Y017059D01*
X023402Y016983D01*
X023402Y016832D01*
X023327Y016757D01*
X023100Y016757D01*
X022931Y016757D02*
X022931Y016682D01*
X022855Y016606D01*
X022705Y016606D01*
X022629Y016682D01*
X022705Y016832D02*
X022629Y016908D01*
X022629Y016983D01*
X022705Y017059D01*
X022855Y017059D01*
X022931Y016983D01*
X022855Y016832D02*
X022931Y016757D01*
X022855Y016832D02*
X022705Y016832D01*
X022466Y016606D02*
X022315Y016606D01*
X022390Y016606D02*
X022390Y017059D01*
X022315Y017059D02*
X022466Y017059D01*
D14*
X002607Y006169D02*
X002607Y005724D01*
X002384Y005947D02*
X002830Y005947D01*
X005731Y002600D02*
X006176Y002600D01*
X010184Y019943D02*
X010407Y020166D01*
X010629Y019943D01*
X010629Y020611D01*
X010909Y020277D02*
X011020Y020389D01*
X011243Y020389D01*
X011354Y020277D01*
X011354Y020166D01*
X010909Y020166D01*
X010909Y020055D02*
X010909Y020277D01*
X010909Y020055D02*
X011020Y019943D01*
X011243Y019943D01*
X011634Y020055D02*
X011634Y020277D01*
X011745Y020389D01*
X012079Y020389D01*
X012079Y020611D02*
X012079Y019943D01*
X011745Y019943D01*
X011634Y020055D01*
X012359Y020277D02*
X012582Y020277D01*
X012470Y020500D02*
X012470Y019943D01*
X012842Y020055D02*
X012842Y020277D01*
X012954Y020389D01*
X013176Y020389D01*
X013288Y020277D01*
X013288Y020166D01*
X012842Y020166D01*
X012842Y020055D02*
X012954Y019943D01*
X013176Y019943D01*
X013567Y019943D02*
X013901Y019943D01*
X014013Y020055D01*
X013901Y020166D01*
X013679Y020166D01*
X013567Y020277D01*
X013679Y020389D01*
X014013Y020389D01*
X014292Y020389D02*
X014515Y020389D01*
X014404Y020500D02*
X014404Y020055D01*
X014515Y019943D01*
X014776Y020055D02*
X014776Y020277D01*
X014887Y020389D01*
X015221Y020389D01*
X015221Y020611D02*
X015221Y019943D01*
X014887Y019943D01*
X014776Y020055D01*
X015501Y020166D02*
X015724Y020389D01*
X015835Y020389D01*
X016105Y020277D02*
X016216Y020389D01*
X016439Y020389D01*
X016550Y020277D01*
X016550Y020166D01*
X016105Y020166D01*
X016105Y020055D02*
X016105Y020277D01*
X016105Y020055D02*
X016216Y019943D01*
X016439Y019943D01*
X016830Y019943D02*
X017164Y019943D01*
X017275Y020055D01*
X017164Y020166D01*
X016941Y020166D01*
X016830Y020277D01*
X016941Y020389D01*
X017275Y020389D01*
X017555Y020277D02*
X017666Y020389D01*
X018000Y020389D01*
X017889Y020166D02*
X017666Y020166D01*
X017555Y020277D01*
X017555Y019943D02*
X017889Y019943D01*
X018000Y020055D01*
X017889Y020166D01*
X018280Y020055D02*
X018280Y019943D01*
X018280Y020277D02*
X018280Y020723D01*
X015501Y020389D02*
X015501Y019943D01*
X012582Y020611D02*
X012470Y020500D01*
X010184Y020611D02*
X010184Y019943D01*
D15*
X007561Y018683D02*
X007285Y018683D01*
X007423Y018820D01*
X007561Y018683D01*
X007548Y018695D02*
X007298Y018695D01*
X007346Y018744D02*
X007500Y018744D01*
X007451Y018792D02*
X007395Y018792D01*
X008177Y017136D02*
X008327Y016936D01*
X008027Y016936D01*
X008177Y017136D01*
X008146Y017095D02*
X008208Y017095D01*
X008244Y017046D02*
X008109Y017046D01*
X008073Y016998D02*
X008281Y016998D01*
X008317Y016949D02*
X008037Y016949D01*
X004135Y015730D02*
X003860Y015730D01*
X003998Y015868D01*
X004135Y015730D01*
X004129Y015737D02*
X003867Y015737D01*
X003915Y015785D02*
X004080Y015785D01*
X004032Y015834D02*
X003964Y015834D01*
X002954Y015730D02*
X002679Y015730D01*
X002817Y015868D01*
X002954Y015730D01*
X002947Y015737D02*
X002686Y015737D01*
X002734Y015785D02*
X002899Y015785D01*
X002850Y015834D02*
X002783Y015834D01*
X002620Y014273D02*
X002443Y014116D01*
X002620Y013958D01*
X002620Y014273D01*
X002620Y014233D02*
X002575Y014233D01*
X002620Y014185D02*
X002520Y014185D01*
X002466Y014136D02*
X002620Y014136D01*
X002620Y014088D02*
X002474Y014088D01*
X002529Y014039D02*
X002620Y014039D01*
X002620Y013991D02*
X002583Y013991D01*
X002817Y011537D02*
X002679Y011399D01*
X002954Y011399D01*
X002817Y011537D01*
X002836Y011517D02*
X002797Y011517D01*
X002748Y011469D02*
X002885Y011469D01*
X002933Y011420D02*
X002700Y011420D01*
X003860Y011399D02*
X003998Y011537D01*
X004135Y011399D01*
X003860Y011399D01*
X003881Y011420D02*
X004114Y011420D01*
X004066Y011469D02*
X003929Y011469D01*
X003978Y011517D02*
X004017Y011517D01*
X002620Y009943D02*
X002443Y009785D01*
X002620Y009628D01*
X002620Y009943D01*
X002620Y009917D02*
X002591Y009917D01*
X002620Y009868D02*
X002536Y009868D01*
X002482Y009820D02*
X002620Y009820D01*
X002620Y009771D02*
X002458Y009771D01*
X002513Y009723D02*
X002620Y009723D01*
X002620Y009674D02*
X002567Y009674D01*
X002817Y007206D02*
X002679Y007069D01*
X002954Y007069D01*
X002817Y007206D01*
X002811Y007201D02*
X002822Y007201D01*
X002871Y007152D02*
X002762Y007152D01*
X002714Y007104D02*
X002919Y007104D01*
X003860Y007069D02*
X003998Y007206D01*
X004135Y007069D01*
X003860Y007069D01*
X003895Y007104D02*
X004100Y007104D01*
X004052Y007152D02*
X003944Y007152D01*
X003992Y007201D02*
X004003Y007201D01*
X007809Y005999D02*
X007809Y005721D01*
X008087Y005999D01*
X007809Y005999D01*
X007809Y005988D02*
X008076Y005988D01*
X008028Y005940D02*
X007809Y005940D01*
X007809Y005891D02*
X007979Y005891D01*
X007931Y005843D02*
X007809Y005843D01*
X007809Y005794D02*
X007882Y005794D01*
X007834Y005746D02*
X007809Y005746D01*
X010750Y003998D02*
X010887Y003860D01*
X010887Y004135D01*
X010750Y003998D01*
X010752Y004000D02*
X010887Y004000D01*
X010887Y004048D02*
X010800Y004048D01*
X010849Y004097D02*
X010887Y004097D01*
X010887Y003951D02*
X010796Y003951D01*
X010845Y003903D02*
X010887Y003903D01*
X010887Y002954D02*
X010887Y002679D01*
X010750Y002817D01*
X010887Y002954D01*
X010887Y002933D02*
X010866Y002933D01*
X010887Y002884D02*
X010817Y002884D01*
X010769Y002836D02*
X010887Y002836D01*
X010887Y002787D02*
X010779Y002787D01*
X010827Y002739D02*
X010887Y002739D01*
X010887Y002690D02*
X010876Y002690D01*
X012344Y002620D02*
X012502Y002443D01*
X012659Y002620D01*
X012344Y002620D01*
X012368Y002593D02*
X012636Y002593D01*
X012592Y002545D02*
X012411Y002545D01*
X012454Y002496D02*
X012549Y002496D01*
X012506Y002448D02*
X012497Y002448D01*
X015080Y002817D02*
X015218Y002679D01*
X015218Y002954D01*
X015080Y002817D01*
X015099Y002836D02*
X015218Y002836D01*
X015218Y002884D02*
X015148Y002884D01*
X015196Y002933D02*
X015218Y002933D01*
X015218Y002787D02*
X015110Y002787D01*
X015158Y002739D02*
X015218Y002739D01*
X015218Y002690D02*
X015207Y002690D01*
X015218Y003860D02*
X015080Y003998D01*
X015218Y004135D01*
X015218Y003860D01*
X015218Y003903D02*
X015175Y003903D01*
X015218Y003951D02*
X015127Y003951D01*
X015082Y004000D02*
X015218Y004000D01*
X015218Y004048D02*
X015131Y004048D01*
X015179Y004097D02*
X015218Y004097D01*
X016675Y002620D02*
X016832Y002443D01*
X016990Y002620D01*
X016675Y002620D01*
X016698Y002593D02*
X016966Y002593D01*
X016923Y002545D02*
X016741Y002545D01*
X016785Y002496D02*
X016880Y002496D01*
X016837Y002448D02*
X016828Y002448D01*
X019411Y002817D02*
X019549Y002679D01*
X019549Y002954D01*
X019411Y002817D01*
X019430Y002836D02*
X019549Y002836D01*
X019549Y002884D02*
X019479Y002884D01*
X019527Y002933D02*
X019549Y002933D01*
X019549Y002787D02*
X019440Y002787D01*
X019489Y002739D02*
X019549Y002739D01*
X019549Y002690D02*
X019537Y002690D01*
X019549Y003860D02*
X019411Y003998D01*
X019549Y004135D01*
X019549Y003860D01*
X019549Y003903D02*
X019506Y003903D01*
X019549Y003951D02*
X019457Y003951D01*
X019413Y004000D02*
X019549Y004000D01*
X019549Y004048D02*
X019462Y004048D01*
X019510Y004097D02*
X019549Y004097D01*
X021242Y005651D02*
X021242Y005966D01*
X021419Y005809D01*
X021242Y005651D01*
X021242Y005697D02*
X021294Y005697D01*
X021242Y005746D02*
X021348Y005746D01*
X021403Y005794D02*
X021242Y005794D01*
X021242Y005843D02*
X021381Y005843D01*
X021326Y005891D02*
X021242Y005891D01*
X021242Y005940D02*
X021271Y005940D01*
X020717Y009310D02*
X020577Y009310D01*
X020717Y009450D01*
X020717Y009310D01*
X020717Y009335D02*
X020602Y009335D01*
X020650Y009383D02*
X020717Y009383D01*
X020717Y009432D02*
X020699Y009432D01*
X012994Y011380D02*
X012797Y011576D01*
X012600Y011380D01*
X012994Y011380D01*
X012953Y011420D02*
X012641Y011420D01*
X012689Y011469D02*
X012904Y011469D01*
X012856Y011517D02*
X012738Y011517D01*
X012786Y011566D02*
X012807Y011566D01*
X020873Y019982D02*
X020859Y020135D01*
X020706Y020149D01*
X020873Y019982D01*
X020871Y020005D02*
X020850Y020005D01*
X020866Y020053D02*
X020802Y020053D01*
X020753Y020102D02*
X020862Y020102D01*
X007088Y021242D02*
X006931Y021419D01*
X006773Y021242D01*
X007088Y021242D01*
X007067Y021266D02*
X006795Y021266D01*
X006838Y021314D02*
X007024Y021314D01*
X006981Y021363D02*
X006881Y021363D01*
X006924Y021411D02*
X006937Y021411D01*
X002620Y018604D02*
X002620Y018289D01*
X002443Y018446D01*
X002620Y018604D01*
X002620Y018598D02*
X002613Y018598D01*
X002620Y018550D02*
X002559Y018550D01*
X002504Y018501D02*
X002620Y018501D01*
X002620Y018453D02*
X002450Y018453D01*
X002490Y018404D02*
X002620Y018404D01*
X002620Y018356D02*
X002545Y018356D01*
X002599Y018307D02*
X002620Y018307D01*
X008013Y002620D02*
X008171Y002443D01*
X008328Y002620D01*
X008013Y002620D01*
X008037Y002593D02*
X008305Y002593D01*
X008262Y002545D02*
X008080Y002545D01*
X008123Y002496D02*
X008219Y002496D01*
X008175Y002448D02*
X008166Y002448D01*
D16*
X007530Y002413D02*
X007468Y002351D01*
X007160Y002351D01*
X007160Y002598D02*
X007468Y002598D01*
X007530Y002536D01*
X007530Y002413D01*
X007530Y002720D02*
X007530Y002966D01*
X007530Y002843D02*
X007160Y002843D01*
X007283Y002720D01*
X007283Y003088D02*
X007221Y003088D01*
X007160Y003150D01*
X007160Y003273D01*
X007221Y003335D01*
X007283Y003335D01*
X007345Y003273D01*
X007345Y003150D01*
X007283Y003088D01*
X007345Y003150D02*
X007406Y003088D01*
X007468Y003088D01*
X007530Y003150D01*
X007530Y003273D01*
X007468Y003335D01*
X007406Y003335D01*
X007345Y003273D01*
X007720Y004662D02*
X007720Y005026D01*
X007902Y005026D01*
X007963Y004966D01*
X007963Y004844D01*
X007902Y004784D01*
X007720Y004784D01*
X007842Y004784D02*
X007963Y004662D01*
X008083Y004662D02*
X008326Y004662D01*
X008204Y004662D02*
X008204Y005026D01*
X008083Y004905D01*
X008445Y004966D02*
X008506Y005026D01*
X008627Y005026D01*
X008688Y004966D01*
X008688Y004905D01*
X008627Y004844D01*
X008688Y004784D01*
X008688Y004723D01*
X008627Y004662D01*
X008506Y004662D01*
X008445Y004723D01*
X008567Y004844D02*
X008627Y004844D01*
X009240Y005835D02*
X009240Y006199D01*
X009422Y006199D01*
X009483Y006139D01*
X009483Y006017D01*
X009422Y005957D01*
X009240Y005957D01*
X009362Y005957D02*
X009483Y005835D01*
X009603Y005896D02*
X009664Y005835D01*
X009785Y005835D01*
X009846Y005896D01*
X009846Y006139D01*
X009785Y006199D01*
X009664Y006199D01*
X009603Y006139D01*
X009603Y006078D01*
X009664Y006017D01*
X009846Y006017D01*
X011458Y006035D02*
X011519Y005973D01*
X011643Y005973D01*
X011704Y006035D01*
X011704Y006344D01*
X011826Y006282D02*
X011888Y006344D01*
X012011Y006344D01*
X012073Y006282D01*
X012073Y006220D01*
X011826Y005973D01*
X012073Y005973D01*
X011458Y006035D02*
X011458Y006344D01*
X012804Y007295D02*
X012804Y007542D01*
X012866Y007603D01*
X012989Y007603D01*
X013051Y007542D01*
X013172Y007542D02*
X013172Y007480D01*
X013234Y007418D01*
X013357Y007418D01*
X013419Y007357D01*
X013419Y007295D01*
X013357Y007233D01*
X013234Y007233D01*
X013172Y007295D01*
X013172Y007357D01*
X013234Y007418D01*
X013357Y007418D02*
X013419Y007480D01*
X013419Y007542D01*
X013357Y007603D01*
X013234Y007603D01*
X013172Y007542D01*
X013051Y007295D02*
X012989Y007233D01*
X012866Y007233D01*
X012804Y007295D01*
X011765Y008294D02*
X011518Y008294D01*
X011397Y008294D02*
X011150Y008294D01*
X011273Y008294D02*
X011273Y008664D01*
X011150Y008541D01*
X011029Y008602D02*
X010967Y008664D01*
X010843Y008664D01*
X010782Y008602D01*
X010782Y008355D01*
X010843Y008294D01*
X010967Y008294D01*
X011029Y008355D01*
X010547Y008152D02*
X010547Y007905D01*
X010486Y007843D01*
X010362Y007843D01*
X010300Y007905D01*
X010547Y008152D01*
X010486Y008214D01*
X010362Y008214D01*
X010300Y008152D01*
X010300Y007905D01*
X010179Y007843D02*
X009932Y007843D01*
X010056Y007843D02*
X010056Y008214D01*
X009932Y008090D01*
X009811Y008152D02*
X009749Y008214D01*
X009626Y008214D01*
X009564Y008152D01*
X009564Y007905D01*
X009626Y007843D01*
X009749Y007843D01*
X009811Y007905D01*
X011518Y008541D02*
X011642Y008664D01*
X011642Y008294D01*
X012055Y009473D02*
X012055Y009837D01*
X012237Y009837D01*
X012298Y009777D01*
X012298Y009655D01*
X012237Y009595D01*
X012055Y009595D01*
X012177Y009595D02*
X012298Y009473D01*
X012418Y009534D02*
X012479Y009473D01*
X012600Y009473D01*
X012661Y009534D01*
X012661Y009655D01*
X012600Y009716D01*
X012539Y009716D01*
X012418Y009655D01*
X012418Y009837D01*
X012661Y009837D01*
X013004Y009829D02*
X013186Y009829D01*
X013247Y009769D01*
X013247Y009647D01*
X013186Y009587D01*
X013004Y009587D01*
X013125Y009587D02*
X013247Y009465D01*
X013367Y009526D02*
X013427Y009465D01*
X013549Y009465D01*
X013609Y009526D01*
X013609Y009587D01*
X013549Y009647D01*
X013488Y009647D01*
X013549Y009647D02*
X013609Y009708D01*
X013609Y009769D01*
X013549Y009829D01*
X013427Y009829D01*
X013367Y009769D01*
X013004Y009829D02*
X013004Y009465D01*
X013863Y009465D02*
X013863Y009829D01*
X014045Y009829D01*
X014106Y009769D01*
X014106Y009647D01*
X014045Y009587D01*
X013863Y009587D01*
X013984Y009587D02*
X014106Y009465D01*
X014226Y009647D02*
X014468Y009647D01*
X014408Y009465D02*
X014408Y009829D01*
X014226Y009647D01*
X014832Y010063D02*
X014832Y010309D01*
X014893Y010371D01*
X015017Y010371D01*
X015078Y010309D01*
X015200Y010186D02*
X015447Y010186D01*
X015385Y010001D02*
X015385Y010371D01*
X015200Y010186D01*
X015078Y010063D02*
X015017Y010001D01*
X014893Y010001D01*
X014832Y010063D01*
X016862Y007300D02*
X016800Y007239D01*
X016800Y006992D01*
X016862Y006930D01*
X016985Y006930D01*
X017047Y006992D01*
X017168Y006930D02*
X017415Y006930D01*
X017292Y006930D02*
X017292Y007300D01*
X017168Y007177D01*
X017047Y007239D02*
X016985Y007300D01*
X016862Y007300D01*
X017537Y007115D02*
X017784Y007115D01*
X017722Y006930D02*
X017722Y007300D01*
X017537Y007115D01*
X017899Y008097D02*
X018022Y008097D01*
X018084Y008159D01*
X018205Y008097D02*
X018452Y008097D01*
X018329Y008097D02*
X018329Y008467D01*
X018205Y008344D01*
X018084Y008405D02*
X018022Y008467D01*
X017899Y008467D01*
X017837Y008405D01*
X017837Y008159D01*
X017899Y008097D01*
X018573Y008159D02*
X018573Y008220D01*
X018635Y008282D01*
X018759Y008282D01*
X018820Y008220D01*
X018820Y008159D01*
X018759Y008097D01*
X018635Y008097D01*
X018573Y008159D01*
X018635Y008282D02*
X018573Y008344D01*
X018573Y008405D01*
X018635Y008467D01*
X018759Y008467D01*
X018820Y008405D01*
X018820Y008344D01*
X018759Y008282D01*
X019001Y009239D02*
X019124Y009239D01*
X019186Y009300D01*
X019308Y009239D02*
X019554Y009239D01*
X019676Y009239D02*
X019676Y009300D01*
X019923Y009547D01*
X019923Y009609D01*
X019676Y009609D01*
X019431Y009609D02*
X019431Y009239D01*
X019308Y009485D02*
X019431Y009609D01*
X019186Y009547D02*
X019124Y009609D01*
X019001Y009609D01*
X018939Y009547D01*
X018939Y009300D01*
X019001Y009239D01*
X021341Y011033D02*
X021402Y010971D01*
X021526Y010971D01*
X021588Y011033D01*
X021709Y010971D02*
X021956Y010971D01*
X021833Y010971D02*
X021833Y011341D01*
X021709Y011218D01*
X021588Y011280D02*
X021526Y011341D01*
X021402Y011341D01*
X021341Y011280D01*
X021341Y011033D01*
X022077Y011033D02*
X022139Y010971D01*
X022263Y010971D01*
X022324Y011033D01*
X022324Y011094D01*
X022263Y011156D01*
X022077Y011156D01*
X022077Y011033D01*
X022077Y011156D02*
X022201Y011280D01*
X022324Y011341D01*
X022379Y010450D02*
X022255Y010450D01*
X022194Y010388D01*
X022194Y010141D01*
X022255Y010080D01*
X022379Y010080D01*
X022441Y010141D01*
X022562Y010080D02*
X022809Y010080D01*
X022685Y010080D02*
X022685Y010450D01*
X022562Y010326D01*
X022441Y010388D02*
X022379Y010450D01*
X022930Y010450D02*
X022930Y010265D01*
X023054Y010326D01*
X023116Y010326D01*
X023177Y010265D01*
X023177Y010141D01*
X023116Y010080D01*
X022992Y010080D01*
X022930Y010141D01*
X022930Y010450D02*
X023177Y010450D01*
X020025Y013554D02*
X019778Y013554D01*
X019902Y013554D02*
X019902Y013924D01*
X019778Y013800D01*
X019657Y013800D02*
X019595Y013739D01*
X019410Y013739D01*
X019410Y013554D02*
X019410Y013924D01*
X019595Y013924D01*
X019657Y013862D01*
X019657Y013800D01*
X019595Y013739D02*
X019657Y013677D01*
X019657Y013615D01*
X019595Y013554D01*
X019410Y013554D01*
X019165Y013739D02*
X019042Y013739D01*
X019042Y013554D02*
X019042Y013924D01*
X019288Y013924D01*
X019204Y014843D02*
X019080Y014843D01*
X019019Y014905D01*
X018897Y014905D02*
X018836Y014843D01*
X018712Y014843D01*
X018650Y014905D01*
X018650Y015152D01*
X018712Y015214D01*
X018836Y015214D01*
X018897Y015152D01*
X019019Y015214D02*
X019019Y015029D01*
X019142Y015090D01*
X019204Y015090D01*
X019266Y015029D01*
X019266Y014905D01*
X019204Y014843D01*
X019266Y015214D02*
X019019Y015214D01*
X018085Y015664D02*
X017838Y015417D01*
X017838Y015355D01*
X017716Y015417D02*
X017654Y015355D01*
X017531Y015355D01*
X017469Y015417D01*
X017469Y015664D01*
X017531Y015725D01*
X017654Y015725D01*
X017716Y015664D01*
X017838Y015725D02*
X018085Y015725D01*
X018085Y015664D01*
X019769Y017261D02*
X019769Y017625D01*
X019951Y017625D01*
X020011Y017564D01*
X020011Y017443D01*
X019951Y017382D01*
X019769Y017382D01*
X019890Y017382D02*
X020011Y017261D01*
X020131Y017321D02*
X020131Y017382D01*
X020192Y017443D01*
X020313Y017443D01*
X020374Y017382D01*
X020374Y017321D01*
X020313Y017261D01*
X020192Y017261D01*
X020131Y017321D01*
X020192Y017443D02*
X020131Y017503D01*
X020131Y017564D01*
X020192Y017625D01*
X020313Y017625D01*
X020374Y017564D01*
X020374Y017503D01*
X020313Y017443D01*
X020031Y018229D02*
X020092Y018291D01*
X020092Y018538D01*
X020031Y018599D01*
X019907Y018599D01*
X019846Y018538D01*
X019846Y018476D01*
X019907Y018414D01*
X020092Y018414D01*
X020031Y018229D02*
X019907Y018229D01*
X019846Y018291D01*
X019724Y018291D02*
X019662Y018229D01*
X019539Y018229D01*
X019477Y018291D01*
X019477Y018538D01*
X019539Y018599D01*
X019662Y018599D01*
X019724Y018538D01*
X019926Y019308D02*
X019926Y019672D01*
X020108Y019672D01*
X020169Y019611D01*
X020169Y019490D01*
X020108Y019429D01*
X019926Y019429D01*
X020047Y019429D02*
X020169Y019308D01*
X020289Y019308D02*
X020531Y019308D01*
X020410Y019308D02*
X020410Y019672D01*
X020289Y019551D01*
X020915Y019499D02*
X020915Y019412D01*
X020958Y019368D01*
X021046Y019368D01*
X021264Y019586D01*
X021307Y019543D02*
X021220Y019630D01*
X021306Y019369D02*
X021481Y019369D01*
X021219Y019108D01*
X021131Y019195D02*
X021306Y019020D01*
X019429Y021080D02*
X019186Y021080D01*
X019429Y021322D01*
X019429Y021383D01*
X019368Y021444D01*
X019247Y021444D01*
X019186Y021383D01*
X019066Y021383D02*
X019066Y021262D01*
X019006Y021201D01*
X018824Y021201D01*
X018945Y021201D02*
X019066Y021080D01*
X018824Y021080D02*
X018824Y021444D01*
X019006Y021444D01*
X019066Y021383D01*
X019021Y022221D02*
X019021Y022585D01*
X019203Y022585D01*
X019263Y022525D01*
X019263Y022403D01*
X019203Y022343D01*
X019021Y022343D01*
X019142Y022343D02*
X019263Y022221D01*
X019383Y022282D02*
X019444Y022221D01*
X019565Y022221D01*
X019626Y022282D01*
X019626Y022343D01*
X019565Y022403D01*
X019383Y022403D01*
X019383Y022282D01*
X019383Y022403D02*
X019504Y022525D01*
X019626Y022585D01*
X016448Y018442D02*
X016325Y018442D01*
X016263Y018380D01*
X016141Y018380D02*
X016080Y018442D01*
X015956Y018442D01*
X015895Y018380D01*
X015895Y018133D01*
X015956Y018072D01*
X016080Y018072D01*
X016141Y018133D01*
X016263Y018072D02*
X016510Y018319D01*
X016510Y018380D01*
X016448Y018442D01*
X016510Y018072D02*
X016263Y018072D01*
X014468Y018312D02*
X014226Y018069D01*
X014226Y018009D01*
X014106Y018009D02*
X013984Y018130D01*
X014045Y018130D02*
X013863Y018130D01*
X013863Y018009D02*
X013863Y018373D01*
X014045Y018373D01*
X014106Y018312D01*
X014106Y018191D01*
X014045Y018130D01*
X014226Y018373D02*
X014468Y018373D01*
X014468Y018312D01*
X010461Y018599D02*
X010218Y018599D01*
X010098Y018599D02*
X009855Y018599D01*
X010098Y018842D01*
X010098Y018903D01*
X010037Y018963D01*
X009916Y018963D01*
X009855Y018903D01*
X009736Y018903D02*
X009736Y018781D01*
X009675Y018721D01*
X009493Y018721D01*
X009614Y018721D02*
X009736Y018599D01*
X009493Y018599D02*
X009493Y018963D01*
X009675Y018963D01*
X009736Y018903D01*
X010218Y018842D02*
X010339Y018963D01*
X010339Y018599D01*
X009573Y019741D02*
X009452Y019741D01*
X009391Y019802D01*
X009634Y020044D01*
X009634Y019802D01*
X009573Y019741D01*
X009391Y019802D02*
X009391Y020044D01*
X009452Y020105D01*
X009573Y020105D01*
X009634Y020044D01*
X009271Y020044D02*
X009271Y019984D01*
X009029Y019741D01*
X009271Y019741D01*
X008909Y019741D02*
X008788Y019862D01*
X008848Y019862D02*
X008666Y019862D01*
X008666Y019741D02*
X008666Y020105D01*
X008848Y020105D01*
X008909Y020044D01*
X008909Y019923D01*
X008848Y019862D01*
X009029Y020044D02*
X009089Y020105D01*
X009211Y020105D01*
X009271Y020044D01*
X007665Y020631D02*
X007419Y020631D01*
X007665Y020878D01*
X007665Y020939D01*
X007604Y021001D01*
X007480Y021001D01*
X007419Y020939D01*
X007174Y021001D02*
X007174Y020631D01*
X007297Y020631D02*
X007050Y020631D01*
X006929Y020692D02*
X006867Y020631D01*
X006744Y020631D01*
X006682Y020692D01*
X006682Y020939D01*
X006744Y021001D01*
X006867Y021001D01*
X006929Y020939D01*
X007050Y020878D02*
X007174Y021001D01*
X006620Y019948D02*
X006499Y019948D01*
X006438Y019887D01*
X006438Y019826D01*
X006499Y019766D01*
X006681Y019766D01*
X006681Y019887D02*
X006681Y019644D01*
X006620Y019584D01*
X006499Y019584D01*
X006438Y019644D01*
X006319Y019584D02*
X006076Y019584D01*
X005956Y019584D02*
X005835Y019705D01*
X005895Y019705D02*
X005713Y019705D01*
X005713Y019584D02*
X005713Y019948D01*
X005895Y019948D01*
X005956Y019887D01*
X005956Y019766D01*
X005895Y019705D01*
X006076Y019826D02*
X006197Y019948D01*
X006197Y019584D01*
X006071Y019229D02*
X005948Y019106D01*
X005826Y019168D02*
X005765Y019229D01*
X005641Y019229D01*
X005580Y019168D01*
X005580Y018921D01*
X005641Y018859D01*
X005765Y018859D01*
X005826Y018921D01*
X005948Y018859D02*
X006195Y018859D01*
X006071Y018859D02*
X006071Y019229D01*
X006316Y019168D02*
X006316Y019106D01*
X006378Y019044D01*
X006563Y019044D01*
X006563Y018921D02*
X006563Y019168D01*
X006501Y019229D01*
X006378Y019229D01*
X006316Y019168D01*
X006316Y018921D02*
X006378Y018859D01*
X006501Y018859D01*
X006563Y018921D01*
X006681Y019887D02*
X006620Y019948D01*
X005382Y019633D02*
X005261Y019572D01*
X005139Y019451D01*
X005321Y019451D01*
X005382Y019390D01*
X005382Y019329D01*
X005321Y019269D01*
X005200Y019269D01*
X005139Y019329D01*
X005139Y019451D01*
X005019Y019269D02*
X004777Y019269D01*
X004657Y019269D02*
X004536Y019390D01*
X004596Y019390D02*
X004414Y019390D01*
X004414Y019269D02*
X004414Y019633D01*
X004596Y019633D01*
X004657Y019572D01*
X004657Y019451D01*
X004596Y019390D01*
X004777Y019511D02*
X004898Y019633D01*
X004898Y019269D01*
X004832Y018255D02*
X004650Y018255D01*
X004650Y017891D01*
X004650Y018012D02*
X004832Y018012D01*
X004893Y018073D01*
X004893Y018194D01*
X004832Y018255D01*
X005013Y018133D02*
X005134Y018255D01*
X005134Y017891D01*
X005013Y017891D02*
X005256Y017891D01*
X005375Y017891D02*
X005618Y018133D01*
X005618Y018194D01*
X005557Y018255D01*
X005436Y018255D01*
X005375Y018194D01*
X005375Y017891D02*
X005618Y017891D01*
X004893Y017891D02*
X004772Y018012D01*
X003965Y017765D02*
X003965Y017703D01*
X003718Y017456D01*
X003718Y017395D01*
X003596Y017395D02*
X003349Y017395D01*
X003473Y017395D02*
X003473Y017765D01*
X003349Y017641D01*
X003228Y017765D02*
X003228Y017456D01*
X003166Y017395D01*
X003043Y017395D01*
X002981Y017456D01*
X002981Y017765D01*
X003718Y017765D02*
X003965Y017765D01*
X005123Y015262D02*
X005305Y015262D01*
X005366Y015202D01*
X005366Y015080D01*
X005305Y015020D01*
X005123Y015020D01*
X005244Y015020D02*
X005366Y014898D01*
X005485Y014959D02*
X005546Y014898D01*
X005667Y014898D01*
X005728Y014959D01*
X005728Y015020D01*
X005667Y015080D01*
X005607Y015080D01*
X005667Y015080D02*
X005728Y015141D01*
X005728Y015202D01*
X005667Y015262D01*
X005546Y015262D01*
X005485Y015202D01*
X005123Y015262D02*
X005123Y014898D01*
X005848Y014898D02*
X006091Y014898D01*
X005969Y014898D02*
X005969Y015262D01*
X005848Y015141D01*
X005909Y014160D02*
X006030Y014160D01*
X006091Y014099D01*
X005848Y013857D01*
X005909Y013796D01*
X006030Y013796D01*
X006091Y013857D01*
X006091Y014099D01*
X005909Y014160D02*
X005848Y014099D01*
X005848Y013857D01*
X005728Y013857D02*
X005667Y013796D01*
X005546Y013796D01*
X005485Y013857D01*
X005366Y013796D02*
X005244Y013917D01*
X005305Y013917D02*
X005123Y013917D01*
X005123Y013796D02*
X005123Y014160D01*
X005305Y014160D01*
X005366Y014099D01*
X005366Y013978D01*
X005305Y013917D01*
X005485Y014099D02*
X005546Y014160D01*
X005667Y014160D01*
X005728Y014099D01*
X005728Y014039D01*
X005667Y013978D01*
X005728Y013917D01*
X005728Y013857D01*
X005667Y013978D02*
X005607Y013978D01*
X005457Y013688D02*
X005457Y013324D01*
X005336Y013324D02*
X005579Y013324D01*
X005546Y013058D02*
X005485Y012997D01*
X005546Y013058D02*
X005667Y013058D01*
X005728Y012997D01*
X005728Y012936D01*
X005485Y012694D01*
X005728Y012694D01*
X005848Y012754D02*
X005909Y012694D01*
X006030Y012694D01*
X006091Y012754D01*
X006091Y012997D01*
X006030Y013058D01*
X005909Y013058D01*
X005848Y012997D01*
X005848Y012936D01*
X005909Y012876D01*
X006091Y012876D01*
X005366Y012876D02*
X005305Y012815D01*
X005123Y012815D01*
X005244Y012815D02*
X005366Y012694D01*
X005366Y012876D02*
X005366Y012997D01*
X005305Y013058D01*
X005123Y013058D01*
X005123Y012694D01*
X005095Y013324D02*
X005095Y013688D01*
X004974Y013566D01*
X004854Y013506D02*
X004793Y013445D01*
X004611Y013445D01*
X004611Y013324D02*
X004611Y013688D01*
X004793Y013688D01*
X004854Y013627D01*
X004854Y013506D01*
X004732Y013445D02*
X004854Y013324D01*
X004974Y013324D02*
X005216Y013324D01*
X005336Y013566D02*
X005457Y013688D01*
X003965Y013434D02*
X003841Y013372D01*
X003718Y013249D01*
X003903Y013249D01*
X003965Y013187D01*
X003965Y013126D01*
X003903Y013064D01*
X003779Y013064D01*
X003718Y013126D01*
X003718Y013249D01*
X003596Y013064D02*
X003349Y013064D01*
X003473Y013064D02*
X003473Y013434D01*
X003349Y013311D01*
X003228Y013434D02*
X003228Y013126D01*
X003166Y013064D01*
X003043Y013064D01*
X002981Y013126D01*
X002981Y013434D01*
X004650Y009633D02*
X004832Y009633D01*
X004893Y009572D01*
X004893Y009451D01*
X004832Y009390D01*
X004650Y009390D01*
X004650Y009269D02*
X004650Y009633D01*
X004772Y009390D02*
X004893Y009269D01*
X005013Y009269D02*
X005256Y009269D01*
X005134Y009269D02*
X005134Y009633D01*
X005013Y009511D01*
X005375Y009572D02*
X005436Y009633D01*
X005557Y009633D01*
X005618Y009572D01*
X005375Y009329D01*
X005436Y009269D01*
X005557Y009269D01*
X005618Y009329D01*
X005618Y009572D01*
X005375Y009572D02*
X005375Y009329D01*
X006214Y008565D02*
X006127Y008478D01*
X006127Y008391D01*
X006170Y008347D01*
X006258Y008347D01*
X006345Y008434D01*
X006432Y008434D01*
X006476Y008391D01*
X006476Y008303D01*
X006388Y008216D01*
X006301Y008216D01*
X006301Y008565D02*
X006214Y008565D01*
X006343Y008695D02*
X006605Y008433D01*
X006605Y008607D01*
X006780Y008607D01*
X006518Y008869D01*
X006735Y008824D02*
X006909Y008999D01*
X006735Y009086D02*
X006735Y008824D01*
X006997Y008824D02*
X006735Y009086D01*
X009139Y009780D02*
X009139Y010144D01*
X009321Y010144D01*
X009381Y010084D01*
X009381Y009962D01*
X009321Y009902D01*
X009139Y009902D01*
X009260Y009902D02*
X009381Y009780D01*
X009501Y009780D02*
X009744Y010023D01*
X009744Y010084D01*
X009683Y010144D01*
X009562Y010144D01*
X009501Y010084D01*
X009501Y009780D02*
X009744Y009780D01*
X009864Y009841D02*
X009924Y009780D01*
X010046Y009780D01*
X010106Y009841D01*
X010106Y009902D01*
X010046Y009962D01*
X009864Y009962D01*
X009864Y009841D01*
X009864Y009962D02*
X009985Y010084D01*
X010106Y010144D01*
X009246Y012694D02*
X009124Y012694D01*
X009064Y012754D01*
X008944Y012754D02*
X008944Y012997D01*
X008883Y013058D01*
X008701Y013058D01*
X008701Y012694D01*
X008883Y012694D01*
X008944Y012754D01*
X009185Y012876D02*
X009246Y012876D01*
X009306Y012815D01*
X009306Y012754D01*
X009246Y012694D01*
X009246Y012876D02*
X009306Y012936D01*
X009306Y012997D01*
X009246Y013058D01*
X009124Y013058D01*
X009064Y012997D01*
X009130Y013808D02*
X009373Y014051D01*
X009373Y014111D01*
X009312Y014172D01*
X009191Y014172D01*
X009130Y014111D01*
X009011Y014111D02*
X009011Y013869D01*
X008950Y013808D01*
X008768Y013808D01*
X008768Y014172D01*
X008950Y014172D01*
X009011Y014111D01*
X009130Y013808D02*
X009373Y013808D01*
X009414Y014593D02*
X009290Y014593D01*
X009229Y014655D01*
X009229Y014902D01*
X009290Y014963D01*
X009414Y014963D01*
X009476Y014902D01*
X009597Y014902D02*
X009659Y014963D01*
X009782Y014963D01*
X009844Y014902D01*
X009844Y014840D01*
X009782Y014778D01*
X009844Y014716D01*
X009844Y014655D01*
X009782Y014593D01*
X009659Y014593D01*
X009597Y014655D01*
X009476Y014655D02*
X009414Y014593D01*
X009721Y014778D02*
X009782Y014778D01*
X009373Y015068D02*
X009130Y015068D01*
X009252Y015068D02*
X009252Y015432D01*
X009130Y015310D01*
X009011Y015371D02*
X009011Y015128D01*
X008950Y015068D01*
X008768Y015068D01*
X008768Y015432D01*
X008950Y015432D01*
X009011Y015371D01*
X009105Y015686D02*
X008983Y015807D01*
X009044Y015807D02*
X008862Y015807D01*
X008862Y015686D02*
X008862Y016050D01*
X009044Y016050D01*
X009105Y015989D01*
X009105Y015868D01*
X009044Y015807D01*
X009225Y015686D02*
X009467Y015929D01*
X009467Y015989D01*
X009407Y016050D01*
X009285Y016050D01*
X009225Y015989D01*
X009225Y016355D02*
X009467Y016598D01*
X009467Y016659D01*
X009407Y016719D01*
X009285Y016719D01*
X009225Y016659D01*
X009105Y016659D02*
X009105Y016537D01*
X009044Y016476D01*
X008862Y016476D01*
X008862Y016355D02*
X008862Y016719D01*
X009044Y016719D01*
X009105Y016659D01*
X008983Y016476D02*
X009105Y016355D01*
X009225Y016355D02*
X009467Y016355D01*
X009587Y016355D02*
X009830Y016598D01*
X009830Y016659D01*
X009769Y016719D01*
X009648Y016719D01*
X009587Y016659D01*
X009587Y016355D02*
X009830Y016355D01*
X009769Y016050D02*
X009830Y015989D01*
X009830Y015929D01*
X009769Y015868D01*
X009830Y015807D01*
X009830Y015747D01*
X009769Y015686D01*
X009648Y015686D01*
X009587Y015747D01*
X009467Y015686D02*
X009225Y015686D01*
X009587Y015989D02*
X009648Y016050D01*
X009769Y016050D01*
X009769Y015868D02*
X009708Y015868D01*
X008256Y016165D02*
X008194Y016103D01*
X008071Y016103D01*
X008009Y016165D01*
X007888Y016103D02*
X007641Y016103D01*
X007764Y016103D02*
X007764Y016474D01*
X007641Y016350D01*
X007519Y016412D02*
X007458Y016474D01*
X007334Y016474D01*
X007272Y016412D01*
X007272Y016165D01*
X007334Y016103D01*
X007458Y016103D01*
X007519Y016165D01*
X008009Y016412D02*
X008071Y016474D01*
X008194Y016474D01*
X008256Y016412D01*
X008256Y016350D01*
X008194Y016288D01*
X008256Y016227D01*
X008256Y016165D01*
X008194Y016288D02*
X008133Y016288D01*
X007722Y017221D02*
X007601Y017221D01*
X007540Y017282D01*
X007540Y017343D01*
X007601Y017403D01*
X007722Y017403D01*
X007783Y017343D01*
X007783Y017282D01*
X007722Y017221D01*
X007722Y017403D02*
X007783Y017464D01*
X007783Y017525D01*
X007722Y017585D01*
X007601Y017585D01*
X007540Y017525D01*
X007540Y017464D01*
X007601Y017403D01*
X007420Y017221D02*
X007177Y017221D01*
X007058Y017221D02*
X006936Y017343D01*
X006997Y017343D02*
X006815Y017343D01*
X006815Y017221D02*
X006815Y017585D01*
X006997Y017585D01*
X007058Y017525D01*
X007058Y017403D01*
X006997Y017343D01*
X007177Y017464D02*
X007299Y017585D01*
X007299Y017221D01*
X010646Y014035D02*
X010646Y013789D01*
X010708Y013727D01*
X010831Y013727D01*
X010893Y013789D01*
X011014Y013789D02*
X011014Y013912D01*
X011200Y013912D01*
X011261Y013850D01*
X011261Y013789D01*
X011200Y013727D01*
X011076Y013727D01*
X011014Y013789D01*
X011014Y013912D02*
X011138Y014035D01*
X011261Y014097D01*
X010893Y014035D02*
X010831Y014097D01*
X010708Y014097D01*
X010646Y014035D01*
X003596Y009042D02*
X003596Y008980D01*
X003535Y008918D01*
X003596Y008857D01*
X003596Y008795D01*
X003535Y008733D01*
X003411Y008733D01*
X003349Y008795D01*
X003228Y008795D02*
X003228Y009103D01*
X003349Y009042D02*
X003411Y009103D01*
X003535Y009103D01*
X003596Y009042D01*
X003535Y008918D02*
X003473Y008918D01*
X003228Y008795D02*
X003166Y008733D01*
X003043Y008733D01*
X002981Y008795D01*
X002981Y009103D01*
X011490Y003273D02*
X011490Y003150D01*
X011552Y003088D01*
X011614Y003088D01*
X011675Y003150D01*
X011675Y003335D01*
X011552Y003335D02*
X011490Y003273D01*
X011552Y003335D02*
X011799Y003335D01*
X011861Y003273D01*
X011861Y003150D01*
X011799Y003088D01*
X011861Y002966D02*
X011861Y002720D01*
X011861Y002843D02*
X011490Y002843D01*
X011614Y002720D01*
X011490Y002598D02*
X011799Y002598D01*
X011861Y002536D01*
X011861Y002413D01*
X011799Y002351D01*
X011490Y002351D01*
X012012Y004623D02*
X012012Y004987D01*
X012194Y004987D01*
X012254Y004926D01*
X012254Y004805D01*
X012194Y004744D01*
X012012Y004744D01*
X012133Y004744D02*
X012254Y004623D01*
X012374Y004623D02*
X012617Y004623D01*
X012496Y004623D02*
X012496Y004987D01*
X012374Y004866D01*
X012737Y004805D02*
X012979Y004805D01*
X012919Y004987D02*
X012737Y004805D01*
X012919Y004623D02*
X012919Y004987D01*
X015673Y005253D02*
X015673Y005617D01*
X015855Y005617D01*
X015916Y005556D01*
X015916Y005435D01*
X015855Y005374D01*
X015673Y005374D01*
X015794Y005374D02*
X015916Y005253D01*
X016036Y005253D02*
X016278Y005495D01*
X016278Y005556D01*
X016218Y005617D01*
X016096Y005617D01*
X016036Y005556D01*
X016036Y005253D02*
X016278Y005253D01*
X016398Y005313D02*
X016459Y005253D01*
X016580Y005253D01*
X016641Y005313D01*
X016641Y005435D01*
X016580Y005495D01*
X016519Y005495D01*
X016398Y005435D01*
X016398Y005617D01*
X016641Y005617D01*
X016524Y004987D02*
X016342Y004987D01*
X016342Y004623D01*
X016342Y004744D02*
X016524Y004744D01*
X016585Y004805D01*
X016585Y004926D01*
X016524Y004987D01*
X016705Y004866D02*
X016826Y004987D01*
X016826Y004623D01*
X016705Y004623D02*
X016948Y004623D01*
X017067Y004684D02*
X017128Y004623D01*
X017249Y004623D01*
X017310Y004684D01*
X017310Y004805D01*
X017249Y004866D01*
X017189Y004866D01*
X017067Y004805D01*
X017067Y004987D01*
X017310Y004987D01*
X017800Y005253D02*
X017800Y005617D01*
X017982Y005617D01*
X018043Y005556D01*
X018043Y005435D01*
X017982Y005374D01*
X017800Y005374D01*
X017921Y005374D02*
X018043Y005253D01*
X018163Y005253D02*
X018405Y005495D01*
X018405Y005556D01*
X018345Y005617D01*
X018223Y005617D01*
X018163Y005556D01*
X018163Y005253D02*
X018405Y005253D01*
X018525Y005435D02*
X018768Y005435D01*
X018707Y005253D02*
X018707Y005617D01*
X018525Y005435D01*
X020438Y005420D02*
X020438Y005056D01*
X020438Y005177D02*
X020620Y005177D01*
X020681Y005238D01*
X020681Y005359D01*
X020620Y005420D01*
X020438Y005420D01*
X020559Y005177D02*
X020681Y005056D01*
X020800Y005056D02*
X021043Y005056D01*
X021163Y005056D02*
X021163Y005117D01*
X021406Y005359D01*
X021406Y005420D01*
X021163Y005420D01*
X020922Y005420D02*
X020922Y005056D01*
X020800Y005299D02*
X020922Y005420D01*
X016585Y004623D02*
X016464Y004744D01*
X016130Y003335D02*
X015883Y003335D01*
X016130Y003088D01*
X016191Y003150D01*
X016191Y003273D01*
X016130Y003335D01*
X016130Y003088D02*
X015883Y003088D01*
X015821Y003150D01*
X015821Y003273D01*
X015883Y003335D01*
X015883Y002966D02*
X015821Y002905D01*
X015821Y002781D01*
X015883Y002720D01*
X015821Y002598D02*
X016130Y002598D01*
X016191Y002536D01*
X016191Y002413D01*
X016130Y002351D01*
X015821Y002351D01*
X016191Y002720D02*
X015944Y002966D01*
X015883Y002966D01*
X016191Y002966D02*
X016191Y002720D01*
X018149Y012467D02*
X018087Y012529D01*
X018087Y012776D01*
X018149Y012837D01*
X018272Y012837D01*
X018334Y012776D01*
X018455Y012714D02*
X018579Y012837D01*
X018579Y012467D01*
X018702Y012467D02*
X018455Y012467D01*
X018334Y012529D02*
X018272Y012467D01*
X018149Y012467D01*
D17*
X007443Y013781D02*
X007443Y014175D01*
X007443Y014883D02*
X007443Y015277D01*
D18*
X009860Y020950D02*
X010254Y020950D01*
X010387Y020950D02*
X010781Y020950D01*
X010915Y020950D02*
X011309Y020950D01*
X011797Y020950D02*
X012191Y020950D01*
D19*
X008425Y021744D02*
X008307Y021744D01*
X008366Y021744D02*
X008366Y021921D01*
X008307Y021862D01*
X008244Y021744D02*
X008126Y021744D01*
X008185Y021744D02*
X008185Y021921D01*
X008126Y021862D01*
X008063Y021921D02*
X008004Y021921D01*
X008033Y021921D02*
X008033Y021773D01*
X008004Y021744D01*
X007974Y021744D01*
X007945Y021773D01*
X002161Y019637D02*
X002102Y019608D01*
X002043Y019549D01*
X002132Y019549D01*
X002161Y019519D01*
X002161Y019490D01*
X002132Y019460D01*
X002073Y019460D01*
X002043Y019490D01*
X002043Y019549D01*
X001980Y019637D02*
X001921Y019637D01*
X001950Y019637D02*
X001950Y019490D01*
X001921Y019460D01*
X001891Y019460D01*
X001862Y019490D01*
X001921Y015307D02*
X001980Y015307D01*
X001950Y015307D02*
X001950Y015159D01*
X001921Y015130D01*
X001891Y015130D01*
X001862Y015159D01*
X002043Y015159D02*
X002073Y015130D01*
X002132Y015130D01*
X002161Y015159D01*
X002161Y015218D01*
X002132Y015248D01*
X002102Y015248D01*
X002043Y015218D01*
X002043Y015307D01*
X002161Y015307D01*
X002124Y010976D02*
X002035Y010887D01*
X002153Y010887D01*
X002124Y010799D02*
X002124Y010976D01*
X001972Y010976D02*
X001913Y010976D01*
X001942Y010976D02*
X001942Y010828D01*
X001913Y010799D01*
X001883Y010799D01*
X001854Y010828D01*
X009551Y002590D02*
X009610Y002590D01*
X009580Y002590D02*
X009580Y002443D01*
X009551Y002413D01*
X009521Y002413D01*
X009492Y002443D01*
X009673Y002443D02*
X009673Y002413D01*
X009673Y002443D02*
X009791Y002561D01*
X009791Y002590D01*
X009673Y002590D01*
X013822Y002443D02*
X013852Y002413D01*
X013881Y002413D01*
X013911Y002443D01*
X013911Y002590D01*
X013940Y002590D02*
X013881Y002590D01*
X014004Y002561D02*
X014004Y002531D01*
X014033Y002502D01*
X014092Y002502D01*
X014122Y002472D01*
X014122Y002443D01*
X014092Y002413D01*
X014033Y002413D01*
X014004Y002443D01*
X014004Y002472D01*
X014033Y002502D01*
X014092Y002502D02*
X014122Y002531D01*
X014122Y002561D01*
X014092Y002590D01*
X014033Y002590D01*
X014004Y002561D01*
X018153Y002443D02*
X018182Y002413D01*
X018212Y002413D01*
X018241Y002443D01*
X018241Y002590D01*
X018212Y002590D02*
X018271Y002590D01*
X018334Y002561D02*
X018334Y002531D01*
X018364Y002502D01*
X018452Y002502D01*
X018452Y002561D02*
X018423Y002590D01*
X018364Y002590D01*
X018334Y002561D01*
X018452Y002561D02*
X018452Y002443D01*
X018423Y002413D01*
X018364Y002413D01*
X018334Y002443D01*
X021065Y007019D02*
X021094Y007019D01*
X021124Y007049D01*
X021124Y007196D01*
X021153Y007196D02*
X021094Y007196D01*
X021216Y007137D02*
X021275Y007196D01*
X021275Y007019D01*
X021216Y007019D02*
X021334Y007019D01*
X021398Y007049D02*
X021516Y007167D01*
X021516Y007049D01*
X021486Y007019D01*
X021427Y007019D01*
X021398Y007049D01*
X021398Y007167D01*
X021427Y007196D01*
X021486Y007196D01*
X021516Y007167D01*
X021065Y007019D02*
X021035Y007049D01*
D20*
X016478Y002462D02*
X016675Y002265D01*
X016281Y002265D01*
X016478Y002462D01*
X016401Y002385D02*
X016555Y002385D01*
X016653Y002287D02*
X016302Y002287D01*
X012344Y002265D02*
X012147Y002462D01*
X011950Y002265D01*
X012344Y002265D01*
X012323Y002287D02*
X011972Y002287D01*
X012070Y002385D02*
X012224Y002385D01*
X008013Y002265D02*
X007817Y002462D01*
X007620Y002265D01*
X008013Y002265D01*
X007992Y002287D02*
X007641Y002287D01*
X007740Y002385D02*
X007894Y002385D01*
X002265Y009943D02*
X002462Y010139D01*
X002265Y010336D01*
X002265Y009943D01*
X002265Y009970D02*
X002293Y009970D01*
X002265Y010068D02*
X002391Y010068D01*
X002435Y010167D02*
X002265Y010167D01*
X002265Y010265D02*
X002336Y010265D01*
X002265Y014273D02*
X002462Y014470D01*
X002265Y014667D01*
X002265Y014273D01*
X002265Y014304D02*
X002296Y014304D01*
X002265Y014402D02*
X002394Y014402D01*
X002432Y014501D02*
X002265Y014501D01*
X002265Y014599D02*
X002333Y014599D01*
X002265Y018604D02*
X002462Y018801D01*
X002265Y018998D01*
X002265Y018604D01*
X002265Y018638D02*
X002299Y018638D01*
X002265Y018736D02*
X002398Y018736D01*
X002428Y018835D02*
X002265Y018835D01*
X002265Y018933D02*
X002330Y018933D01*
M02*
