G75*
%MOIN*%
%OFA0B0*%
%FSLAX24Y24*%
%IPPOS*%
%LPD*%
%AMOC8*
5,1,8,0,0,1.08239X$1,22.5*
%
%ADD10R,0.0315X0.0236*%
%ADD11R,0.0236X0.0315*%
%ADD12R,0.0276X0.0709*%
%ADD13R,0.0630X0.0866*%
D10*
G36*
X007129Y006962D02*
X006908Y006741D01*
X006741Y006908D01*
X006962Y007129D01*
X007129Y006962D01*
G37*
G36*
X007435Y007268D02*
X007214Y007047D01*
X007047Y007214D01*
X007268Y007435D01*
X007435Y007268D01*
G37*
G36*
X008473Y008640D02*
X008694Y008861D01*
X008861Y008694D01*
X008640Y008473D01*
X008473Y008640D01*
G37*
G36*
X008780Y008947D02*
X009001Y009168D01*
X009168Y009001D01*
X008947Y008780D01*
X008780Y008947D01*
G37*
X001517Y008781D03*
X001084Y008781D03*
X001084Y007994D03*
X001517Y007994D03*
X001517Y009569D03*
X001084Y009569D03*
X001084Y012324D03*
X001517Y012324D03*
X001517Y013112D03*
X001084Y013112D03*
X001084Y013899D03*
X001517Y013899D03*
X001517Y016655D03*
X001084Y016655D03*
X001084Y017443D03*
X001517Y017443D03*
X001517Y018230D03*
X001084Y018230D03*
G36*
X020166Y021081D02*
X020387Y021302D01*
X020554Y021135D01*
X020333Y020914D01*
X020166Y021081D01*
G37*
G36*
X020472Y021388D02*
X020693Y021609D01*
X020860Y021442D01*
X020639Y021221D01*
X020472Y021388D01*
G37*
G36*
X021260Y020600D02*
X021481Y020821D01*
X021648Y020654D01*
X021427Y020433D01*
X021260Y020600D01*
G37*
G36*
X020954Y020294D02*
X021175Y020515D01*
X021342Y020348D01*
X021121Y020127D01*
X020954Y020294D01*
G37*
D11*
X020277Y019431D03*
X020277Y018998D03*
X021852Y006281D03*
X021852Y005848D03*
X018624Y001517D03*
X018624Y001084D03*
X017836Y001084D03*
X017836Y001517D03*
X017049Y001517D03*
X017049Y001084D03*
X014293Y001084D03*
X014293Y001517D03*
X013506Y001517D03*
X013506Y001084D03*
X012718Y001084D03*
X012718Y001517D03*
X009923Y001545D03*
X009923Y001112D03*
X009167Y001112D03*
X009167Y001545D03*
X008364Y001545D03*
X008364Y001112D03*
X006458Y021754D03*
X006458Y022187D03*
X005907Y022187D03*
X005907Y021754D03*
D12*
X010061Y021419D03*
X010553Y021419D03*
X011045Y021419D03*
X011537Y021419D03*
X012029Y021419D03*
X016557Y021419D03*
X017049Y021419D03*
X017541Y021419D03*
D13*
X018466Y022718D03*
X015631Y022718D03*
X012954Y022718D03*
X009135Y022718D03*
M02*
