%
M48
M72
T01C0.0142
T02C0.0472
T03C0.0949
T04C0.1250
%
T01
X3958Y5533
X4254Y5828
X4549Y6124
X4844Y6419
X5139Y6714
X5435Y6419
X6419Y5435
X6714Y5139
X6419Y4844
X6124Y4549
X5828Y4254
X5533Y3958
X7797Y2088
X8781Y1545
X9569Y1545
X9569Y1112
X10198Y2088
X9372Y2836
X9805Y3663
X10553Y3663
X10907Y4254
X11261Y4765
X11734Y4765
X12403Y4785
X12856Y4785
X11734Y3663
X10946Y3072
X12128Y2088
X13112Y1517
X13899Y1517
X13899Y1084
X14490Y2088
X13722Y2817
X12915Y3269
X14116Y3663
X14844Y3663
X15277Y4254
X15592Y4805
X16084Y5927
X16734Y4785
X17187Y4785
X18387Y5907
X18820Y5946
X18820Y4765
X19608Y4254
X19175Y3663
X18446Y3663
X18053Y2817
X17246Y3269
X16458Y2088
X15277Y3072
X14490Y4765
X14490Y5946
X12443Y8506
X11655Y8387
X10553Y8033
X9205Y8742
X8289Y8303
X7600Y7600
X7156Y6694
X5828Y8112
X4765Y7797
X4254Y7069
X3663Y7423
X3072Y7069
X2088Y7797
X1517Y8407
X1084Y8387
X1517Y9194
X2088Y10159
X3269Y9372
X2817Y8584
X3663Y8171
X4785Y9431
X4844Y9962
X4883Y10631
X4844Y11104
X4254Y11399
X3663Y11754
X3072Y11399
X3663Y10789
X4844Y12128
X5986Y12128
X6222Y11576
X5553Y10631
X3683Y12502
X2817Y12915
X3269Y13702
X2088Y14490
X1517Y13525
X1517Y12738
X1084Y12718
X2088Y12128
X4785Y13761
X4844Y14293
X5946Y15080
X4805Y15435
X4254Y15730
X3683Y16084
X3072Y15730
X2088Y16458
X1517Y17069
X1084Y17049
X1517Y17856
X2088Y18820
X3269Y18033
X2817Y17246
X3683Y16832
X4844Y16458
X5868Y16458
X4785Y18092
X4844Y18624
X6419Y20317
X6419Y21301
X5907Y21301
X7324Y21773
X8072Y20198
X7836Y18387
X7462Y17895
X8663Y16891
X8167Y16356
X8545Y15710
X9096Y15572
X9687Y14411
X11419Y15120
X12521Y15572
X12482Y16025
X12246Y16576
X11813Y16576
X11419Y16576
X10139Y16990
X12639Y15041
X13072Y15080
X13348Y15395
X13112Y15868
X13801Y16006
X13309Y17167
X12797Y17364
X14765Y18702
X16045Y18250
X16045Y17580
X15159Y17206
X15513Y15513
X15553Y15080
X16025Y14391
X16025Y13604
X16616Y12443
X17482Y12679
X19175Y13742
X18309Y15474
X17757Y15671
X17679Y16065
X20198Y15828
X20710Y17049
X21773Y17521
X20750Y18899
X20868Y19829
X20277Y19844
X20277Y20277
X19908Y20631
X19529Y21143
X17757Y20789
X17049Y19805
X16557Y19273
X17817Y22423
X12718Y21301
X11994Y20773
X11112Y20757
X10553Y20789
X9651Y21265
X11112Y22120
X12580Y14588
X12561Y13604
X13210Y12502
X13151Y11340
X12222Y10655
X11458Y11431
X9746Y10454
X8072Y11183
X10277Y6419
X10159Y5789
X10946Y5750
X8525Y4785
X7994Y4844
X8545Y3269
X14962Y10120
X15238Y10513
X14391Y12502
X17482Y9332
X17876Y9805
X17836Y10238
X18663Y8939
X20120Y9844
X20041Y11143
X22344Y10257
X22344Y9588
X20474Y7815
X22265Y6281
X21773Y5395
X20710Y3781
X19608Y3072
X18820Y2088
X18230Y1517
X18230Y1084
X17443Y1517
X19923Y5317
T02
X907Y4450
X4450Y907
X20198Y907
X22954Y3663
X22954Y19411
X19411Y22954
X3663Y22954
X907Y20198
T03
X2686Y4718
X4718Y2686
T04
X21773Y2088
X22561Y14293
X14293Y22561
X2088Y21773
M30
