G75*
%MOIN*%
%OFA0B0*%
%FSLAX24Y24*%
%IPPOS*%
%LPD*%
%AMOC8*
5,1,8,0,0,1.08239X$1,22.5*
%
%ADD10R,0.0110X0.0591*%
%ADD11R,0.0591X0.0110*%
%ADD12R,0.0157X0.0591*%
%ADD13R,0.0591X0.0157*%
%ADD14R,0.0394X0.0394*%
%ADD15R,0.0157X0.0531*%
%ADD16R,0.0827X0.0630*%
%ADD17R,0.0709X0.0748*%
%ADD18R,0.0748X0.0748*%
%ADD19R,0.0394X0.0354*%
%ADD20R,0.0354X0.0394*%
%ADD21R,0.0394X0.0315*%
%ADD22R,0.0394X0.0236*%
%ADD23R,0.0500X0.1181*%
%ADD24R,0.0315X0.0315*%
%ADD25R,0.0236X0.0315*%
%ADD26R,0.0472X0.0315*%
%ADD27R,0.0846X0.0512*%
%ADD28R,0.0315X0.0472*%
%ADD29R,0.0512X0.0846*%
%ADD30R,0.0354X0.0217*%
%ADD31R,0.0165X0.0303*%
%ADD32R,0.0303X0.0165*%
%ADD33R,0.0217X0.0354*%
%ADD34R,0.0140X0.0500*%
%ADD35R,0.0098X0.0236*%
%ADD36R,0.0315X0.0315*%
%ADD37R,0.0472X0.0551*%
D10*
X013013Y011970D03*
X013210Y011970D03*
X013407Y011970D03*
X013604Y011970D03*
X013801Y011970D03*
X013998Y011970D03*
X014194Y011970D03*
X014391Y011970D03*
X014588Y011970D03*
X014785Y011970D03*
X014982Y011970D03*
X015179Y011970D03*
X015376Y011970D03*
X015572Y011970D03*
X015572Y016616D03*
X015376Y016616D03*
X015179Y016616D03*
X014982Y016616D03*
X014785Y016616D03*
X014588Y016616D03*
X014391Y016616D03*
X014194Y016616D03*
X013998Y016616D03*
X013801Y016616D03*
X013604Y016616D03*
X013407Y016616D03*
X013210Y016616D03*
X013013Y016616D03*
D11*
X011970Y015572D03*
X011970Y015376D03*
X011970Y015179D03*
X011970Y014982D03*
X011970Y014785D03*
X011970Y014588D03*
X011970Y014391D03*
X011970Y014194D03*
X011970Y013998D03*
X011970Y013801D03*
X011970Y013604D03*
X011970Y013407D03*
X011970Y013210D03*
X011970Y013013D03*
X016616Y013013D03*
X016616Y013210D03*
X016616Y013407D03*
X016616Y013604D03*
X016616Y013801D03*
X016616Y013998D03*
X016616Y014194D03*
X016616Y014391D03*
X016616Y014588D03*
X016616Y014785D03*
X016616Y014982D03*
X016616Y015179D03*
X016616Y015376D03*
X016616Y015572D03*
D12*
X015793Y016616D03*
X012793Y016616D03*
X012793Y011970D03*
X015793Y011970D03*
D13*
X016616Y012793D03*
X016616Y015793D03*
X011970Y015793D03*
X011970Y012793D03*
D14*
X010809Y014411D03*
X010809Y015002D03*
X010139Y015002D03*
X010139Y014411D03*
X010139Y015907D03*
X010139Y016537D03*
X010809Y016537D03*
X010809Y015907D03*
X008446Y015080D03*
X007777Y015080D03*
X007069Y015080D03*
X006399Y015080D03*
X006399Y013978D03*
X007069Y013978D03*
X007777Y013978D03*
X008446Y013978D03*
X007069Y012876D03*
X006399Y012876D03*
X004332Y013761D03*
X004332Y014431D03*
X007462Y016813D03*
X008131Y016813D03*
X007009Y017895D03*
X006340Y017895D03*
X006340Y018565D03*
X007009Y018565D03*
X007009Y019076D03*
X007009Y019746D03*
X006872Y020317D03*
X007541Y020317D03*
X008387Y019746D03*
X008387Y019076D03*
X009175Y018761D03*
X009175Y019431D03*
X004332Y018761D03*
X004332Y018092D03*
X004116Y019450D03*
X003446Y019450D03*
X009293Y011124D03*
X009293Y010454D03*
X010998Y007954D03*
X011667Y007954D03*
X012454Y008072D03*
X012454Y007403D03*
X010285Y007533D03*
X010285Y006864D03*
X009679Y007171D03*
X009679Y006502D03*
X008525Y004372D03*
X007856Y004372D03*
X012187Y004332D03*
X012856Y004332D03*
X016517Y004332D03*
X017187Y004332D03*
X017246Y005927D03*
X017246Y006596D03*
X017954Y006596D03*
X017954Y005927D03*
X016537Y005927D03*
X016537Y006596D03*
X019116Y008269D03*
X019785Y008269D03*
X019785Y008939D03*
X019116Y008939D03*
X020572Y009844D03*
X021242Y009844D03*
X021891Y009588D03*
X021891Y010257D03*
X018407Y013151D03*
X018722Y013742D03*
X018053Y013742D03*
X017738Y013151D03*
X017757Y014352D03*
X018309Y014352D03*
X018309Y015021D03*
X017757Y015021D03*
X015592Y017580D03*
X015592Y018250D03*
X014765Y018250D03*
X014765Y017580D03*
X018978Y020139D03*
X019608Y020139D03*
X019608Y019470D03*
X019628Y018899D03*
X020297Y018899D03*
X020710Y018171D03*
X020710Y017502D03*
X018978Y020809D03*
X018742Y021754D03*
X018742Y022423D03*
X014529Y010848D03*
X013978Y010848D03*
X013427Y010848D03*
X013427Y010179D03*
X012891Y010167D03*
X012222Y010167D03*
X013978Y010179D03*
X014529Y010179D03*
X021025Y006399D03*
X021025Y005730D03*
X004332Y009431D03*
X004332Y010100D03*
D15*
G36*
X020511Y021345D02*
X020621Y021235D01*
X020247Y020861D01*
X020137Y020971D01*
X020511Y021345D01*
G37*
G36*
X020692Y021164D02*
X020802Y021054D01*
X020428Y020680D01*
X020318Y020790D01*
X020692Y021164D01*
G37*
G36*
X020873Y020983D02*
X020983Y020873D01*
X020609Y020499D01*
X020499Y020609D01*
X020873Y020983D01*
G37*
G36*
X021054Y020802D02*
X021164Y020692D01*
X020790Y020318D01*
X020680Y020428D01*
X021054Y020802D01*
G37*
G36*
X021235Y020621D02*
X021345Y020511D01*
X020971Y020137D01*
X020861Y020247D01*
X021235Y020621D01*
G37*
D16*
G36*
X021569Y020426D02*
X022152Y019843D01*
X021707Y019398D01*
X021124Y019981D01*
X021569Y020426D01*
G37*
G36*
X019843Y022152D02*
X020426Y021569D01*
X019981Y021124D01*
X019398Y021707D01*
X019843Y022152D01*
G37*
D17*
G36*
X020441Y023057D02*
X020941Y022557D01*
X020413Y022029D01*
X019913Y022529D01*
X020441Y023057D01*
G37*
G36*
X022557Y020941D02*
X023057Y020441D01*
X022529Y019913D01*
X022029Y020413D01*
X022557Y020941D01*
G37*
D18*
G36*
X021819Y021679D02*
X022347Y021151D01*
X021819Y020623D01*
X021291Y021151D01*
X021819Y021679D01*
G37*
G36*
X021151Y022347D02*
X021679Y021819D01*
X021151Y021291D01*
X020623Y021819D01*
X021151Y022347D01*
G37*
D19*
X018151Y022974D03*
X017521Y022974D03*
X017521Y021360D03*
X018151Y021360D03*
X008702Y011596D03*
X008072Y011596D03*
X008072Y009982D03*
X008702Y009982D03*
D20*
X021360Y017521D03*
X021360Y018151D03*
X022974Y018151D03*
X022974Y017521D03*
D21*
X011876Y007376D03*
X011876Y006628D03*
X010931Y006628D03*
X010931Y007376D03*
D22*
X010931Y007002D03*
D23*
G36*
X005391Y004203D02*
X005038Y004556D01*
X005871Y005389D01*
X006224Y005036D01*
X005391Y004203D01*
G37*
G36*
X004556Y005038D02*
X004203Y005391D01*
X005036Y006224D01*
X005389Y005871D01*
X004556Y005038D01*
G37*
D24*
X007817Y012876D03*
X008407Y012876D03*
D25*
X010057Y021265D03*
X010057Y021698D03*
X010584Y021698D03*
X010584Y021265D03*
X011112Y021265D03*
X011112Y021698D03*
X011994Y021698D03*
X011994Y021265D03*
D26*
X002088Y018427D03*
X002088Y017935D03*
X002088Y017443D03*
X002088Y016950D03*
X002088Y014096D03*
X002088Y013604D03*
X002088Y013112D03*
X002088Y012620D03*
X002088Y009765D03*
X002088Y009273D03*
X002088Y008781D03*
X002088Y008289D03*
X021773Y006320D03*
X021773Y005828D03*
D27*
X022677Y005080D03*
X022677Y007069D03*
X001185Y007541D03*
X001185Y010513D03*
X001185Y011872D03*
X001185Y014844D03*
X001185Y016202D03*
X001185Y019175D03*
D28*
X005927Y021773D03*
X006419Y021773D03*
X006911Y021773D03*
X008191Y002088D03*
X008683Y002088D03*
X009175Y002088D03*
X009667Y002088D03*
X012521Y002088D03*
X013013Y002088D03*
X013506Y002088D03*
X013998Y002088D03*
X016852Y002088D03*
X017344Y002088D03*
X017836Y002088D03*
X018328Y002088D03*
D29*
X019076Y001185D03*
X016104Y001185D03*
X014746Y001185D03*
X011773Y001185D03*
X010415Y001185D03*
X007443Y001185D03*
X007659Y022677D03*
X005179Y022677D03*
D30*
X003742Y018801D03*
X003742Y018427D03*
X003742Y018053D03*
X002797Y018053D03*
X002797Y018427D03*
X002797Y018801D03*
X002797Y014470D03*
X002797Y014096D03*
X002797Y013722D03*
X003742Y013722D03*
X003742Y014096D03*
X003742Y014470D03*
X003742Y010139D03*
X003742Y009765D03*
X003742Y009391D03*
X002797Y009391D03*
X002797Y009765D03*
X002797Y010139D03*
D31*
X002817Y011754D03*
X003072Y011754D03*
X003328Y011754D03*
X003998Y011754D03*
X004254Y011754D03*
X004509Y011754D03*
X004509Y012502D03*
X004254Y012502D03*
X003998Y012502D03*
X003328Y012502D03*
X003072Y012502D03*
X002817Y012502D03*
X002817Y016084D03*
X003072Y016084D03*
X003328Y016084D03*
X003998Y016084D03*
X004254Y016084D03*
X004509Y016084D03*
X004509Y016832D03*
X004254Y016832D03*
X003998Y016832D03*
X003328Y016832D03*
X003072Y016832D03*
X002817Y016832D03*
X007423Y019037D03*
X007679Y019037D03*
X007935Y019037D03*
X007935Y019785D03*
X007423Y019785D03*
X004509Y008171D03*
X004254Y008171D03*
X003998Y008171D03*
X003328Y008171D03*
X003072Y008171D03*
X002817Y008171D03*
X002817Y007423D03*
X003072Y007423D03*
X003328Y007423D03*
X003998Y007423D03*
X004254Y007423D03*
X004509Y007423D03*
D32*
X009785Y004509D03*
X009785Y004254D03*
X009785Y003998D03*
X009785Y003328D03*
X009785Y003072D03*
X009785Y002817D03*
X010533Y002817D03*
X010533Y003072D03*
X010533Y003328D03*
X010533Y003998D03*
X010533Y004254D03*
X010533Y004509D03*
X014116Y004509D03*
X014116Y004254D03*
X014116Y003998D03*
X014116Y003328D03*
X014116Y003072D03*
X014116Y002817D03*
X014864Y002817D03*
X014864Y003072D03*
X014864Y003328D03*
X014864Y003998D03*
X014864Y004254D03*
X014864Y004509D03*
X018446Y004509D03*
X018446Y004254D03*
X018446Y003998D03*
X018446Y003328D03*
X018446Y003072D03*
X018446Y002817D03*
X019194Y002817D03*
X019194Y003072D03*
X019194Y003328D03*
X019194Y003998D03*
X019194Y004254D03*
X019194Y004509D03*
D33*
X017226Y003742D03*
X016852Y003742D03*
X016478Y003742D03*
X016478Y002797D03*
X016852Y002797D03*
X017226Y002797D03*
X012895Y002797D03*
X012521Y002797D03*
X012147Y002797D03*
X012147Y003742D03*
X012521Y003742D03*
X012895Y003742D03*
X008565Y003742D03*
X008191Y003742D03*
X007817Y003742D03*
X007817Y002797D03*
X008191Y002797D03*
X008565Y002797D03*
D34*
X008687Y017476D03*
X008427Y017476D03*
X008167Y017476D03*
X008167Y018196D03*
X008427Y018196D03*
X008687Y018196D03*
D35*
G36*
X020584Y008678D02*
X020514Y008608D01*
X020348Y008774D01*
X020418Y008844D01*
X020584Y008678D01*
G37*
G36*
X020723Y008817D02*
X020653Y008747D01*
X020487Y008913D01*
X020557Y008983D01*
X020723Y008817D01*
G37*
G36*
X020862Y008956D02*
X020792Y008886D01*
X020626Y009052D01*
X020696Y009122D01*
X020862Y008956D01*
G37*
G36*
X021002Y009095D02*
X020932Y009025D01*
X020766Y009191D01*
X020836Y009261D01*
X021002Y009095D01*
G37*
G36*
X021198Y009025D02*
X021128Y009095D01*
X021294Y009261D01*
X021364Y009191D01*
X021198Y009025D01*
G37*
G36*
X021337Y008886D02*
X021267Y008956D01*
X021433Y009122D01*
X021503Y009052D01*
X021337Y008886D01*
G37*
G36*
X021476Y008747D02*
X021406Y008817D01*
X021572Y008983D01*
X021642Y008913D01*
X021476Y008747D01*
G37*
G36*
X021615Y008608D02*
X021545Y008678D01*
X021711Y008844D01*
X021781Y008774D01*
X021615Y008608D01*
G37*
G36*
X021781Y008316D02*
X021711Y008246D01*
X021545Y008412D01*
X021615Y008482D01*
X021781Y008316D01*
G37*
G36*
X021642Y008177D02*
X021572Y008107D01*
X021406Y008273D01*
X021476Y008343D01*
X021642Y008177D01*
G37*
G36*
X021503Y008038D02*
X021433Y007968D01*
X021267Y008134D01*
X021337Y008204D01*
X021503Y008038D01*
G37*
G36*
X021364Y007898D02*
X021294Y007828D01*
X021128Y007994D01*
X021198Y008064D01*
X021364Y007898D01*
G37*
G36*
X020836Y007828D02*
X020766Y007898D01*
X020932Y008064D01*
X021002Y007994D01*
X020836Y007828D01*
G37*
G36*
X020696Y007968D02*
X020626Y008038D01*
X020792Y008204D01*
X020862Y008134D01*
X020696Y007968D01*
G37*
G36*
X020557Y008107D02*
X020487Y008177D01*
X020653Y008343D01*
X020723Y008273D01*
X020557Y008107D01*
G37*
G36*
X020418Y008246D02*
X020348Y008316D01*
X020514Y008482D01*
X020584Y008412D01*
X020418Y008246D01*
G37*
D36*
G36*
X021065Y008323D02*
X020843Y008545D01*
X021065Y008767D01*
X021287Y008545D01*
X021065Y008323D01*
G37*
D37*
G36*
X009269Y007657D02*
X008935Y007323D01*
X008547Y007711D01*
X008881Y008045D01*
X009269Y007657D01*
G37*
G36*
X008573Y006961D02*
X008239Y006627D01*
X007851Y007015D01*
X008185Y007349D01*
X008573Y006961D01*
G37*
G36*
X007877Y006265D02*
X007543Y005931D01*
X007155Y006319D01*
X007489Y006653D01*
X007877Y006265D01*
G37*
G36*
X006653Y007489D02*
X006319Y007155D01*
X005931Y007543D01*
X006265Y007877D01*
X006653Y007489D01*
G37*
G36*
X007349Y008185D02*
X007015Y007851D01*
X006627Y008239D01*
X006961Y008573D01*
X007349Y008185D01*
G37*
G36*
X008045Y008881D02*
X007711Y008547D01*
X007323Y008935D01*
X007657Y009269D01*
X008045Y008881D01*
G37*
M02*
