%
M48
M72
T01C0.0140
T02C0.0500
T03C0.0600
%
T01
X1620Y1620
X2620Y2870
X1620Y4120
X3120Y4370
X4120Y2870
X3120Y1370
T02
X720Y1120
X720Y1995
X720Y2870
X720Y3745
X720Y4620
X5520Y4620
X5520Y3745
X5520Y2870
X5520Y1995
X5520Y1120
T03
X4670Y770
X3570Y770
X2670Y770
X1570Y770
X1570Y4970
X2670Y4970
X3570Y4970
X4670Y4970
M30
