G75*
%MOIN*%
%OFA0B0*%
%FSLAX24Y24*%
%IPPOS*%
%LPD*%
%AMOC8*
5,1,8,0,0,1.08239X$1,22.5*
%
%ADD10R,0.0472X0.0591*%
%ADD11R,0.0236X0.0315*%
%ADD12C,0.0300*%
%ADD13C,0.0300*%
%ADD14C,0.0120*%
%ADD15C,0.0160*%
D10*
X002451Y001964D03*
X003120Y001964D03*
X003789Y001964D03*
X003789Y003776D03*
X003120Y003776D03*
X002451Y003776D03*
D11*
X001720Y003537D03*
X001720Y003103D03*
X001720Y002537D03*
X001720Y002103D03*
X004620Y001903D03*
X004620Y002337D03*
X004620Y003003D03*
X004620Y003437D03*
D12*
X004120Y002870D02*
X003789Y002539D01*
X003789Y001964D01*
X003370Y002870D02*
X002620Y002870D01*
X003370Y002870D02*
X003789Y003289D01*
X003789Y003776D01*
D13*
X001620Y001620D03*
X002620Y002870D03*
X001620Y004120D03*
X003120Y004370D03*
X004120Y002870D03*
X003120Y001370D03*
D14*
X003120Y001964D01*
X002451Y001964D02*
X002451Y001751D01*
X002320Y001620D01*
X001620Y001620D01*
X002451Y003776D02*
X002451Y003989D01*
X002320Y004120D01*
X001620Y004120D01*
X003120Y004370D02*
X003120Y003776D01*
D15*
X003120Y004370D02*
X004370Y004370D01*
X004620Y004120D01*
X004620Y003437D01*
X004620Y003003D02*
X004253Y003003D01*
X004120Y002870D01*
X003789Y002539D02*
X003789Y002537D01*
X001720Y002537D01*
X001720Y003103D01*
X001720Y003537D02*
X001720Y003820D01*
X001620Y003920D01*
X001620Y004120D01*
X001720Y002103D02*
X002451Y002103D01*
X002451Y001964D01*
X003120Y001370D02*
X004470Y001370D01*
X004620Y001520D01*
X004620Y001903D01*
X004620Y002337D02*
X004620Y003003D01*
M02*
